<svg xmlns="http://www.w3.org/2000/svg" xmlns:xlink="http://www.w3.org/1999/xlink" width="377" zoomAndPan="magnify" viewBox="0 0 282.75 62.999997" height="84" preserveAspectRatio="xMidYMid meet" version="1.0"><defs><g/><clipPath id="4aa75c36ab"><path d="M 0.542969 36 L 69 36 L 69 55.421875 L 0.542969 55.421875 Z M 0.542969 36 " clip-rule="nonzero"/></clipPath><clipPath id="244a95b6e4"><path d="M 0.542969 44 L 29 44 L 29 52 L 0.542969 52 Z M 0.542969 44 " clip-rule="nonzero"/></clipPath><clipPath id="21a15f1946"><path d="M 4 12 L 69.691406 12 L 69.691406 45 L 4 45 Z M 4 12 " clip-rule="nonzero"/></clipPath><clipPath id="82c2432cd7"><path d="M 61 23 L 69.691406 23 L 69.691406 28 L 61 28 Z M 61 23 " clip-rule="nonzero"/></clipPath><clipPath id="ff82d0c8b8"><path d="M 10 7.355469 L 20 7.355469 L 20 12 L 10 12 Z M 10 7.355469 " clip-rule="nonzero"/></clipPath></defs><g clip-path="url(#4aa75c36ab)"><path fill="#27272a" d="M 23.839844 47.082031 C 30.1875 45.710938 36.523438 44.28125 42.851562 42.808594 C 48.335938 41.53125 53.800781 40.164062 59.277344 38.832031 C 62.355469 38.082031 65.429688 37.324219 68.507812 36.570312 C 68.613281 36.546875 68.71875 36.535156 68.828125 36.515625 C 68.75 36.605469 68.664062 36.636719 68.574219 36.664062 C 65.921875 37.417969 63.273438 38.1875 60.613281 38.921875 C 53.171875 40.980469 45.730469 43.039062 38.28125 45.066406 C 26.121094 48.378906 13.957031 51.667969 1.792969 54.964844 C 1.199219 55.128906 0.597656 55.265625 -0.00390625 55.414062 L -0.00390625 52.050781 C 0.828125 51.886719 1.65625 51.726562 2.484375 51.554688 C 9.601562 50.066406 16.730469 48.617188 23.839844 47.082031 Z M 23.839844 47.082031 " fill-opacity="1" fill-rule="nonzero"/></g><g clip-path="url(#244a95b6e4)"><path fill="#27272a" d="M 0.773438 49.125 C 4.40625 48.542969 8.039062 47.96875 11.667969 47.371094 C 14.886719 46.839844 18.097656 46.257812 21.367188 46.097656 C 22.457031 46.042969 23.550781 45.882812 24.492188 45.222656 C 24.632812 45.121094 24.824219 45.085938 24.996094 45.054688 C 25.757812 44.914062 26.519531 44.785156 27.28125 44.65625 C 27.359375 44.644531 27.480469 44.621094 27.515625 44.660156 C 27.765625 44.933594 27.996094 45.21875 28.238281 45.507812 C 28.082031 45.542969 27.933594 45.582031 27.785156 45.609375 C 24.042969 46.386719 20.304688 47.179688 16.558594 47.929688 C 11.972656 48.847656 7.378906 49.722656 2.789062 50.621094 C 1.859375 50.804688 0.929688 51 0 51.191406 L 0 49.261719 C 0.257812 49.214844 0.515625 49.167969 0.773438 49.125 Z M 0.773438 49.125 " fill-opacity="1" fill-rule="nonzero"/></g><g clip-path="url(#21a15f1946)"><path fill="#27272a" d="M 68.015625 36.15625 C 68 36.183594 67.984375 36.207031 67.96875 36.234375 C 67.972656 36.632812 67.636719 36.492188 67.449219 36.59375 C 67.390625 36.476562 67.34375 36.386719 67.296875 36.296875 C 67.277344 36.300781 67.261719 36.304688 67.242188 36.3125 C 67.253906 36.417969 67.269531 36.527344 67.285156 36.660156 C 66.4375 36.863281 65.574219 37.066406 64.710938 37.273438 C 64.699219 37.222656 64.683594 37.175781 64.671875 37.125 C 65.417969 36.796875 66.242188 36.714844 67.035156 36.507812 C 66.949219 36.453125 66.859375 36.394531 66.777344 36.40625 C 66.296875 36.472656 65.824219 36.558594 65.339844 36.636719 C 65.308594 36.578125 65.273438 36.507812 65.269531 36.503906 C 65.039062 36.601562 64.839844 36.6875 64.625 36.777344 C 64.652344 37.289062 64.527344 37.351562 63.875 37.433594 C 63.84375 37.332031 63.8125 37.226562 63.777344 37.125 C 63.699219 37.355469 63.695312 37.632812 63.367188 37.589844 C 63.246094 37.570312 63.140625 37.417969 62.988281 37.296875 C 62.960938 37.371094 62.90625 37.503906 62.828125 37.6875 C 62.734375 37.582031 62.609375 37.449219 62.453125 37.289062 C 62.519531 37.480469 62.570312 37.628906 62.617188 37.777344 C 62.027344 37.917969 61.460938 38.050781 60.898438 38.1875 C 60.324219 38.324219 59.75 38.464844 59.15625 38.605469 C 59.210938 38.1875 59.527344 38.160156 59.808594 38.101562 C 60.625 37.929688 61.445312 37.761719 62.320312 37.585938 C 62.175781 37.484375 62.09375 37.417969 62.003906 37.367188 C 61.742188 37.226562 61.707031 37.097656 61.929688 36.855469 C 62.128906 36.632812 62.242188 36.339844 62.394531 36.074219 C 62.089844 36.375 61.867188 36.761719 61.363281 36.738281 C 60.953125 36.71875 60.496094 36.871094 60.210938 36.394531 L 60.132812 36.480469 C 60.324219 36.6875 60.511719 36.894531 60.679688 37.078125 C 60.632812 37.140625 60.53125 37.246094 60.449219 37.371094 C 60.257812 37.664062 59.664062 37.839844 59.398438 37.671875 C 59.398438 37.671875 59.398438 37.675781 59.398438 37.675781 C 58.582031 37.878906 57.769531 38.082031 56.953125 38.285156 C 56.964844 38.335938 56.980469 38.382812 56.992188 38.433594 C 57.160156 38.382812 57.328125 38.335938 57.5 38.285156 C 57.519531 38.601562 57.367188 38.902344 57.160156 38.875 C 56.730469 38.824219 56.796875 38.4375 56.730469 38.140625 C 56.699219 38.152344 56.667969 38.160156 56.632812 38.167969 C 56.699219 38.484375 56.761719 38.804688 56.832031 39.148438 C 56.496094 39.242188 56.390625 38.828125 56.050781 38.652344 C 56.199219 38.890625 56.304688 39.0625 56.421875 39.253906 C 50.898438 40.523438 45.378906 41.789062 39.808594 43.070312 C 39.996094 42.789062 40.136719 42.554688 40.300781 42.339844 C 40.375 42.246094 40.492188 42.160156 40.605469 42.136719 C 43.214844 41.597656 45.824219 41.066406 48.433594 40.527344 C 50.933594 40.011719 53.429688 39.480469 55.941406 38.953125 C 55.875 38.847656 55.808594 38.734375 55.726562 38.601562 C 55.175781 38.699219 54.640625 38.804688 54.101562 38.886719 C 54.023438 38.898438 53.933594 38.816406 53.847656 38.777344 C 53.585938 39.152344 53.199219 39.109375 52.820312 39.101562 C 52.820312 39.105469 52.816406 39.105469 52.816406 39.109375 C 52.648438 39.164062 52.484375 39.234375 52.316406 39.269531 C 49.609375 39.808594 46.898438 40.347656 44.191406 40.882812 C 43.769531 40.964844 43.347656 41.039062 42.925781 41.117188 C 42.996094 40.949219 43.097656 40.847656 43.191406 40.746094 C 43.535156 40.367188 43.894531 40 44.214844 39.601562 C 44.460938 39.296875 44.460938 38.910156 44.292969 38.585938 C 44.136719 38.277344 43.824219 38.472656 43.582031 38.515625 C 43.171875 38.597656 42.851562 38.515625 42.589844 38.148438 C 42.441406 37.941406 42.199219 37.796875 41.996094 37.625 C 42.210938 37.953125 42.453125 38.222656 42.6875 38.507812 C 42.859375 38.71875 43.050781 38.839844 43.335938 38.761719 C 43.484375 38.722656 43.640625 38.714844 43.792969 38.691406 C 44.144531 38.632812 44.25 38.699219 44.226562 39.046875 C 44.214844 39.210938 44.148438 39.402344 44.039062 39.523438 C 43.628906 40 43.203125 40.472656 42.75 40.910156 C 42.566406 41.085938 42.308594 41.210938 42.0625 41.292969 C 41.632812 41.429688 41.191406 41.539062 40.75 41.617188 C 40.332031 41.6875 40.054688 41.859375 39.875 42.273438 C 39.699219 42.679688 39.34375 42.960938 38.867188 42.945312 C 38.359375 42.933594 38.109375 42.566406 37.890625 42.15625 C 37.9375 42.132812 37.96875 42.117188 37.996094 42.109375 C 38.972656 41.890625 39.945312 41.675781 40.921875 41.457031 C 41.21875 41.390625 41.492188 41.261719 41.496094 40.921875 C 41.503906 40.179688 41.472656 39.4375 41.457031 38.699219 C 41.425781 38.699219 41.394531 38.699219 41.363281 38.699219 C 41.351562 38.804688 41.335938 38.910156 41.332031 39.015625 C 41.316406 39.585938 41.300781 40.15625 41.28125 40.730469 C 41.277344 40.9375 41.257812 41.136719 40.992188 41.191406 C 40.613281 41.269531 40.238281 41.359375 39.859375 41.445312 C 39.839844 41.425781 39.824219 41.402344 39.808594 41.378906 C 39.902344 41.269531 40 41.160156 40.109375 41.039062 C 40.007812 40.996094 39.914062 40.960938 39.753906 40.894531 C 39.832031 40.691406 39.910156 40.496094 39.988281 40.292969 C 39.683594 40.101562 39.683594 39.792969 40.082031 39.578125 C 39.917969 39.523438 39.777344 39.4375 39.640625 39.441406 C 39.46875 39.453125 39.300781 39.5625 39.121094 39.585938 C 38.296875 39.683594 37.464844 39.777344 36.636719 39.859375 C 35.441406 39.976562 34.246094 40.082031 33.050781 40.203125 C 32.714844 40.238281 32.378906 40.308594 32.039062 40.363281 C 32.042969 40.390625 32.046875 40.421875 32.046875 40.453125 L 32.984375 40.453125 C 33.011719 40.71875 33.035156 40.945312 33.0625 41.1875 C 32.785156 41.21875 32.546875 41.246094 32.3125 41.273438 L 32.3125 41.378906 C 32.570312 41.394531 32.824219 41.414062 33.101562 41.433594 C 33.117188 41.652344 33.128906 41.847656 33.140625 42.058594 C 32.839844 42.085938 32.582031 42.109375 32.328125 42.132812 C 32.328125 42.171875 32.324219 42.214844 32.324219 42.253906 C 32.605469 42.277344 32.890625 42.296875 33.183594 42.320312 C 33.203125 42.484375 33.222656 42.632812 33.246094 42.804688 C 32.777344 42.832031 32.332031 42.863281 31.839844 42.894531 L 31.839844 40.457031 C 31.792969 40.457031 31.746094 40.460938 31.695312 40.460938 C 31.695312 41.195312 31.699219 41.933594 31.695312 42.671875 C 31.695312 43.082031 31.730469 43.113281 32.148438 43.113281 C 33.25 43.109375 34.324219 42.949219 35.414062 42.59375 C 35.101562 43.152344 34.644531 43.386719 34.078125 43.386719 C 33.542969 43.386719 33.003906 43.351562 32.472656 43.308594 C 32.199219 43.285156 32.050781 43.382812 31.910156 43.625 C 31.730469 43.9375 31.507812 44.25 31.234375 44.484375 C 30.683594 44.960938 29.945312 44.828125 29.535156 44.226562 C 29.238281 43.796875 29.148438 43.3125 29.117188 42.804688 C 29.101562 42.570312 29.164062 42.417969 29.375 42.273438 C 29.65625 42.082031 29.925781 41.851562 30.144531 41.59375 C 30.957031 40.636719 31.527344 39.476562 32.539062 38.671875 C 32.082031 38.980469 31.644531 39.308594 31.277344 39.703125 C 30.863281 40.148438 30.511719 40.648438 30.144531 41.128906 C 29.660156 41.761719 29.046875 42.199219 28.253906 42.3125 C 27.394531 42.433594 26.53125 42.535156 25.667969 42.597656 C 23.894531 42.722656 22.121094 42.8125 20.347656 42.917969 C 17.140625 43.105469 13.9375 43.164062 10.738281 42.820312 C 9.390625 42.671875 8.089844 42.359375 6.898438 41.671875 C 5.164062 40.667969 4.273438 38.992188 4.519531 37.191406 C 4.78125 35.277344 5.332031 33.449219 6.183594 31.714844 C 8.367188 27.28125 11.011719 23.117188 13.789062 19.042969 C 15.191406 16.992188 17.039062 15.398438 19.355469 14.414062 C 22.375 13.128906 25.539062 12.613281 28.808594 12.71875 C 30.175781 12.761719 31.5 13.027344 32.753906 13.605469 C 34.527344 14.421875 36.3125 15.214844 38.089844 16.019531 C 39.085938 16.46875 40.085938 16.921875 40.96875 17.320312 C 41.328125 17.164062 41.582031 16.984375 41.855469 16.945312 C 42.53125 16.847656 43.207031 16.859375 43.839844 17.210938 C 44.265625 17.445312 44.707031 17.652344 45.148438 17.863281 C 45.890625 18.21875 46.25 18.839844 46.394531 19.621094 C 46.410156 19.714844 46.488281 19.835938 46.574219 19.875 C 47.097656 20.128906 47.632812 20.367188 48.144531 20.601562 C 48.300781 20.511719 48.433594 20.40625 48.585938 20.355469 C 49.625 20.019531 51.140625 20.898438 51.386719 21.957031 C 51.410156 22.058594 51.511719 22.179688 51.609375 22.226562 C 53.882812 23.265625 56.152344 24.308594 58.441406 25.316406 C 59.136719 25.625 59.738281 26.019531 60.179688 26.636719 C 60.34375 26.871094 60.542969 26.953125 60.816406 26.929688 C 61.921875 26.835938 62.972656 27.019531 63.960938 27.550781 C 64.105469 27.625 64.328125 27.609375 64.496094 27.566406 C 65.019531 27.425781 65.972656 27.664062 66.152344 28.058594 C 66.363281 28.519531 66.6875 28.789062 67.160156 28.917969 C 67.332031 28.964844 67.492188 29.050781 67.660156 29.117188 C 68.496094 29.441406 68.804688 30.210938 69.164062 30.929688 C 69.242188 31.085938 69.203125 31.304688 69.203125 31.492188 C 69.207031 32.246094 69.21875 32.996094 69.203125 33.746094 C 69.179688 34.730469 68.847656 35.570312 68.011719 36.15625 Z M 57.628906 37.855469 C 58.175781 37.777344 58.722656 37.699219 59.269531 37.617188 C 59.265625 37.59375 59.261719 37.566406 59.257812 37.542969 C 58.710938 37.617188 58.164062 37.695312 57.617188 37.769531 C 57.621094 37.800781 57.625 37.828125 57.628906 37.855469 Z M 57.058594 37.402344 C 57.878906 37.300781 58.699219 37.203125 59.519531 37.101562 C 59.527344 37.140625 59.539062 37.179688 59.546875 37.21875 C 59.289062 37.265625 59.039062 37.320312 58.78125 37.359375 C 58.488281 37.398438 58.195312 37.425781 57.902344 37.457031 C 57.625 37.488281 57.347656 37.519531 57.066406 37.550781 C 57.070312 37.585938 57.074219 37.621094 57.078125 37.65625 C 57.882812 37.5625 58.683594 37.46875 59.511719 37.371094 C 59.46875 37.480469 59.433594 37.570312 59.398438 37.664062 C 59.792969 37.539062 59.546875 37.25 59.585938 36.972656 C 58.710938 37.085938 57.882812 37.199219 57.050781 37.308594 C 57.054688 37.339844 57.058594 37.371094 57.058594 37.40625 Z M 57.054688 37.148438 C 57.847656 37.039062 58.636719 36.933594 59.429688 36.828125 C 59.425781 36.785156 59.417969 36.746094 59.414062 36.707031 C 58.621094 36.820312 57.832031 36.9375 57.039062 37.054688 C 57.042969 37.085938 57.050781 37.117188 57.054688 37.148438 Z M 55.011719 37.128906 C 55.285156 37.15625 55.5625 37.183594 55.769531 37.203125 C 55.933594 36.960938 56.085938 36.730469 56.242188 36.5 C 56.230469 36.484375 56.21875 36.46875 56.207031 36.453125 C 56.175781 36.472656 56.128906 36.480469 56.109375 36.507812 C 55.8125 36.980469 55.34375 36.980469 54.863281 36.964844 C 54.703125 36.960938 54.542969 37.039062 54.382812 37.078125 C 54.394531 37.109375 54.402344 37.144531 54.410156 37.175781 C 54.550781 37.148438 54.691406 37.121094 54.886719 37.085938 C 55.003906 37.960938 54.304688 38.296875 53.847656 38.777344 C 54.414062 38.660156 55.046875 37.761719 55.011719 37.128906 Z M 53.671875 38.167969 C 53.894531 37.816406 53.992188 37.390625 54.097656 36.945312 C 54.023438 37.019531 53.882812 37.101562 53.882812 37.175781 C 53.902344 37.964844 53.332031 38.40625 52.890625 38.925781 C 52.855469 38.96875 52.84375 39.027344 52.824219 39.085938 C 53.113281 38.78125 53.449219 38.511719 53.671875 38.167969 Z M 36.925781 39.554688 C 37.472656 39.503906 37.996094 39.457031 38.539062 39.40625 C 38.546875 39.242188 38.554688 39.117188 38.566406 38.925781 C 38.007812 38.96875 37.476562 39.007812 36.925781 39.050781 Z M 38.550781 38.46875 L 38.550781 37.976562 C 38.011719 38.019531 37.480469 38.058594 36.933594 38.097656 L 36.933594 38.570312 C 37.480469 38.535156 38.007812 38.503906 38.550781 38.46875 Z M 60.6875 35.359375 C 60.699219 35.160156 60.71875 34.972656 60.722656 34.785156 C 60.730469 34.609375 60.726562 34.429688 60.726562 34.183594 C 53.902344 34.300781 47.09375 34.421875 40.265625 34.539062 C 40.246094 34.863281 40.230469 35.15625 40.210938 35.449219 C 40.160156 35.449219 40.109375 35.449219 40.054688 35.449219 C 40.039062 35.160156 40.019531 34.871094 40 34.570312 L 39.367188 34.570312 C 39.367188 35.0625 39.339844 35.527344 39.378906 35.984375 C 39.398438 36.242188 39.523438 36.492188 39.625 36.816406 C 38.503906 36.90625 37.488281 36.988281 36.4375 37.070312 L 36.4375 34.644531 L 35.925781 34.644531 C 35.90625 34.960938 35.886719 35.277344 35.867188 35.59375 C 35.820312 35.597656 35.773438 35.597656 35.726562 35.597656 C 35.710938 35.449219 35.6875 35.304688 35.679688 35.15625 C 35.671875 35.003906 35.675781 34.851562 35.675781 34.746094 C 34.875 34.746094 34.113281 34.707031 33.359375 34.753906 C 31.085938 34.894531 28.824219 35.125 26.589844 35.59375 C 25.679688 35.785156 24.78125 36.007812 23.980469 36.515625 C 23.3125 36.9375 22.824219 37.503906 22.582031 38.261719 C 22.554688 38.347656 22.542969 38.4375 22.511719 38.582031 C 35.273438 37.714844 47.957031 36.460938 60.6875 35.359375 Z M 36.679688 33.808594 L 38.898438 33.808594 C 38.910156 33.714844 38.925781 33.636719 38.929688 33.554688 C 38.949219 29.058594 38.960938 24.566406 38.992188 20.070312 C 38.996094 19.664062 38.882812 19.476562 38.484375 19.378906 C 38.015625 19.261719 37.554688 19.082031 37.105469 18.894531 C 36.820312 18.773438 36.703125 18.835938 36.695312 19.136719 C 36.683594 19.671875 36.664062 20.210938 36.664062 20.746094 C 36.667969 25.015625 36.671875 29.28125 36.679688 33.550781 C 36.679688 33.621094 36.679688 33.695312 36.679688 33.808594 Z M 36.714844 34.597656 L 36.714844 36.25 C 37.4375 36.207031 38.15625 36.167969 38.898438 36.125 L 38.898438 34.597656 Z M 22.113281 15.796875 C 21.71875 16.28125 21.738281 17 22.164062 17.480469 C 21.847656 16.925781 21.894531 16.363281 22.113281 15.796875 Z M 23.609375 15.128906 C 22.902344 15.125 22.242188 15.828125 22.234375 16.589844 C 22.230469 17.21875 22.640625 17.65625 23.226562 17.65625 C 23.894531 17.65625 24.585938 16.929688 24.601562 16.214844 C 24.609375 15.605469 24.179688 15.136719 23.609375 15.132812 Z M 30 17.496094 C 29.945312 17.398438 29.71875 17.339844 29.578125 17.355469 C 28.761719 17.441406 27.945312 17.558594 27.128906 17.65625 C 24.871094 17.9375 22.617188 18.21875 20.355469 18.492188 C 18.925781 18.664062 17.496094 18.824219 16.066406 19.003906 C 15.957031 19.015625 15.832031 19.113281 15.765625 19.210938 C 14.269531 21.347656 12.78125 23.488281 11.296875 25.632812 C 11.222656 25.734375 11.15625 25.921875 11.203125 26.011719 C 11.25 26.097656 11.441406 26.164062 11.5625 26.15625 C 12.667969 26.101562 13.777344 26.03125 14.90625 25.960938 C 14.925781 26.058594 14.949219 26.164062 14.988281 26.371094 C 16.425781 24.96875 17.8125 23.617188 19.203125 22.261719 L 19.28125 22.332031 C 18.464844 23.433594 17.648438 24.53125 16.832031 25.632812 C 16.550781 25.5625 16.289062 25.511719 16.097656 25.898438 C 16.34375 25.839844 16.519531 25.796875 16.707031 25.75 C 16.609375 25.964844 16.519531 26.167969 16.425781 26.375 C 16.46875 26.402344 16.507812 26.429688 16.550781 26.457031 C 18.582031 23.980469 20.449219 21.375 22.425781 18.851562 C 22.402344 18.832031 22.378906 18.808594 22.351562 18.789062 C 22.164062 19 21.96875 19.207031 21.78125 19.421875 C 21.59375 19.636719 21.417969 19.859375 21.171875 20.03125 C 21.386719 19.753906 21.597656 19.476562 21.8125 19.199219 C 21.800781 19.1875 21.785156 19.179688 21.773438 19.167969 C 21.066406 19.847656 20.351562 20.519531 19.652344 21.207031 C 18.25 22.585938 16.851562 23.96875 15.460938 25.359375 C 15.230469 25.589844 15 25.71875 14.65625 25.730469 C 13.8125 25.761719 12.96875 25.851562 12.125 25.902344 C 11.988281 25.910156 11.84375 25.835938 11.703125 25.796875 C 11.742188 25.660156 11.75 25.5 11.824219 25.390625 C 13.113281 23.511719 14.425781 21.652344 15.691406 19.761719 C 15.964844 19.347656 16.28125 19.191406 16.746094 19.136719 C 19.65625 18.796875 22.5625 18.433594 25.46875 18.078125 C 26.648438 17.929688 27.832031 17.785156 29.011719 17.636719 C 29.074219 17.628906 29.136719 17.613281 29.191406 17.625 C 29.308594 17.652344 29.492188 17.671875 29.523438 17.742188 C 29.5625 17.847656 29.535156 18.03125 29.460938 18.125 C 29.085938 18.605469 28.691406 19.066406 28.300781 19.53125 C 26.917969 21.171875 25.53125 22.808594 24.15625 24.453125 C 23.78125 24.902344 23.359375 25.160156 22.757812 25.1875 C 21.160156 25.261719 19.566406 25.375 17.972656 25.480469 C 17.835938 25.492188 17.699219 25.574219 17.5625 25.625 C 17.570312 25.664062 17.582031 25.703125 17.59375 25.742188 C 18.089844 25.710938 18.585938 25.679688 19.082031 25.652344 C 20.414062 25.574219 21.746094 25.496094 23.078125 25.425781 C 23.597656 25.394531 23.957031 25.109375 24.273438 24.730469 C 25.570312 23.171875 26.875 21.621094 28.175781 20.066406 C 28.710938 19.429688 29.25 18.789062 29.785156 18.148438 C 29.839844 18.085938 29.917969 18.027344 29.9375 17.957031 C 29.980469 17.804688 30.0625 17.605469 30 17.496094 Z M 43.878906 17.660156 C 43.96875 17.945312 44.0625 18.253906 44.167969 18.558594 C 44.191406 18.628906 44.242188 18.710938 44.304688 18.742188 C 44.660156 18.917969 45.027344 19.082031 45.421875 19.265625 C 45.265625 18.328125 44.699219 17.84375 43.878906 17.664062 Z M 49.929688 20.792969 C 50.175781 21.1875 50.09375 21.800781 50.773438 21.789062 C 50.691406 21.332031 50.546875 20.90625 49.929688 20.792969 Z M 60.730469 28.867188 C 60.726562 28.476562 60.664062 28.082031 60.597656 27.699219 C 60.515625 27.242188 60.257812 26.941406 59.808594 26.753906 C 58.125 26.058594 56.464844 25.3125 54.785156 24.605469 C 49.566406 22.410156 44.34375 20.226562 39.121094 18.035156 C 37.878906 17.511719 36.609375 17.136719 35.242188 17.242188 C 33.445312 17.378906 31.882812 18.101562 30.601562 19.316406 C 29.554688 20.3125 28.597656 21.421875 27.714844 22.570312 C 26.496094 24.15625 25.382812 25.824219 24.226562 27.457031 C 24.1875 27.515625 24.144531 27.570312 24.144531 27.574219 C 23.9375 27.296875 23.785156 26.941406 23.515625 26.769531 C 23.238281 26.59375 22.84375 26.519531 22.503906 26.535156 C 18.703125 26.679688 14.902344 26.851562 11.105469 27.011719 C 10.042969 27.054688 9.222656 27.460938 8.652344 28.410156 C 7.148438 30.917969 5.75 33.46875 4.988281 36.3125 C 4.867188 36.761719 4.84375 37.253906 4.878906 37.71875 C 4.917969 38.222656 5.230469 38.460938 5.738281 38.515625 C 8.8125 38.851562 11.894531 38.9375 14.984375 38.851562 C 17.011719 38.792969 19.039062 38.722656 21.0625 38.660156 C 21.230469 38.652344 21.394531 38.640625 21.589844 38.628906 C 21.632812 38.417969 21.667969 38.207031 21.71875 38.003906 C 22.03125 36.773438 22.828125 35.945312 23.933594 35.394531 C 25.042969 34.839844 26.242188 34.585938 27.453125 34.378906 C 29.882812 33.972656 32.335938 33.867188 34.792969 33.824219 C 35.0625 33.820312 35.335938 33.824219 35.695312 33.824219 L 35.695312 21.945312 C 35.738281 21.945312 35.785156 21.945312 35.828125 21.945312 C 35.863281 25.890625 35.902344 29.839844 35.9375 33.808594 L 36.433594 33.808594 C 36.433594 33.640625 36.433594 33.488281 36.433594 33.339844 C 36.433594 28.84375 36.429688 24.347656 36.433594 19.851562 C 36.433594 19.519531 36.441406 19.183594 36.488281 18.855469 C 36.550781 18.429688 36.851562 18.21875 37.257812 18.347656 C 37.824219 18.527344 38.382812 18.738281 38.929688 18.96875 C 39.261719 19.113281 39.414062 19.421875 39.425781 19.777344 C 39.441406 20.171875 39.441406 20.566406 39.4375 20.960938 C 39.417969 25.085938 39.394531 29.210938 39.375 33.335938 C 39.375 33.476562 39.375 33.621094 39.375 33.789062 L 40.03125 33.789062 L 40.03125 23.097656 C 40.074219 23.097656 40.117188 23.097656 40.15625 23.097656 C 40.195312 26.660156 40.234375 30.21875 40.273438 33.800781 L 60.683594 33.800781 C 60.695312 33.710938 60.71875 33.632812 60.71875 33.550781 C 60.726562 31.992188 60.738281 30.429688 60.730469 28.867188 Z M 64.457031 36.34375 C 64.457031 36.335938 64.460938 36.324219 64.460938 36.316406 L 63.597656 36.316406 C 63.597656 36.289062 63.59375 36.261719 63.59375 36.234375 C 63.871094 36.199219 64.148438 36.164062 64.375 36.136719 C 63.820312 36.035156 63.480469 36.117188 63.332031 36.417969 C 63.710938 36.394531 64.085938 36.367188 64.457031 36.34375 Z M 69.046875 31.933594 C 69.078125 30.171875 68.859375 30.402344 67.710938 29.929688 C 66.316406 29.355469 64.902344 28.820312 63.5 28.261719 C 63.105469 28.101562 62.710938 28.105469 62.3125 28.226562 C 61.75 28.402344 61.496094 28.75 61.492188 29.332031 C 61.488281 30.664062 61.488281 32 61.484375 33.335938 C 61.484375 33.476562 61.484375 33.617188 61.484375 33.785156 L 64.152344 33.785156 L 64.152344 31.855469 C 64.152344 31.035156 64.152344 30.210938 64.152344 29.390625 C 64.152344 30.214844 64.152344 31.035156 64.152344 31.855469 C 64.179688 31.953125 64.230469 32.050781 64.230469 32.144531 C 64.226562 32.632812 64.203125 33.121094 64.195312 33.609375 C 64.195312 33.667969 64.226562 33.730469 64.3125 33.78125 L 64.3125 29.082031 C 64.453125 29.195312 64.558594 29.28125 64.734375 29.421875 L 64.734375 33.789062 L 69.046875 33.789062 C 69.046875 33.164062 69.035156 32.546875 69.046875 31.933594 Z M 64.515625 33.605469 L 64.515625 31.597656 C 64.488281 31.59375 64.460938 31.59375 64.429688 31.59375 L 64.429688 33.773438 C 64.484375 33.773438 64.566406 33.78125 64.671875 33.785156 L 64.671875 30.085938 C 64.652344 30.085938 64.632812 30.085938 64.617188 30.085938 L 64.617188 33.617188 C 64.582031 33.613281 64.550781 33.609375 64.515625 33.605469 Z M 69.019531 33.957031 C 67.59375 34 66.191406 34.042969 64.789062 34.082031 C 64.757812 34.316406 64.730469 34.515625 64.703125 34.710938 C 64.664062 34.707031 64.628906 34.707031 64.589844 34.703125 C 64.570312 34.503906 64.546875 34.304688 64.527344 34.105469 C 64.492188 34.105469 64.453125 34.105469 64.417969 34.105469 C 64.402344 34.296875 64.382812 34.492188 64.367188 34.6875 C 64.355469 34.6875 64.34375 34.6875 64.332031 34.6875 L 64.332031 34.140625 C 64.308594 34.140625 64.28125 34.140625 64.257812 34.140625 L 64.257812 34.714844 C 64.234375 34.714844 64.214844 34.71875 64.191406 34.71875 L 64.191406 34.15625 L 61.476562 34.15625 C 61.476562 34.492188 61.453125 34.789062 61.488281 35.078125 C 61.5 35.15625 61.691406 35.28125 61.789062 35.273438 C 63.589844 35.117188 65.394531 34.941406 67.199219 34.773438 C 67.625 34.734375 68.050781 34.695312 68.480469 34.65625 C 68.992188 34.613281 69.050781 34.539062 69.019531 33.957031 Z M 69.019531 33.957031 " fill-opacity="1" fill-rule="nonzero"/></g><path fill="#27272a" d="M 57.503906 38.28125 C 57.5 38.28125 57.5 38.285156 57.496094 38.285156 C 57.496094 38.28125 57.496094 38.277344 57.496094 38.273438 Z M 57.503906 38.28125 " fill-opacity="1" fill-rule="nonzero"/><path fill="#27272a" d="M 22.636719 45.253906 C 18.613281 45.816406 14.574219 46.066406 10.523438 45.667969 C 9.4375 45.5625 8.367188 45.304688 7.296875 45.085938 C 6.914062 45.007812 6.824219 44.777344 7.019531 44.488281 C 7.390625 43.9375 7.773438 43.390625 8.171875 42.855469 C 8.234375 42.773438 8.410156 42.726562 8.523438 42.738281 C 9.03125 42.796875 9.535156 42.914062 10.042969 42.957031 C 11.988281 43.125 13.929688 43.328125 15.878906 43.417969 C 18.859375 43.558594 21.835938 43.457031 24.808594 43.207031 C 25.671875 43.132812 26.535156 43.046875 27.398438 42.964844 C 27.402344 42.988281 27.40625 43.011719 27.410156 43.035156 C 25.921875 43.75 24.433594 44.464844 22.945312 45.175781 C 22.851562 45.21875 22.742188 45.238281 22.636719 45.253906 Z M 22.636719 45.253906 " fill-opacity="1" fill-rule="nonzero"/><path fill="#27272a" d="M 61.109375 22.21875 C 60.953125 21.925781 60.746094 21.660156 60.535156 21.402344 C 59.503906 20.160156 58.371094 19.019531 57.097656 18.023438 C 56.214844 17.332031 55.289062 16.699219 54.191406 16.386719 C 53.570312 16.210938 52.941406 16.082031 52.398438 16.578125 C 52.128906 16.28125 51.882812 15.988281 51.617188 15.714844 C 50.628906 14.679688 49.527344 13.796875 48.160156 13.304688 C 46.730469 12.789062 45.449219 13.015625 44.28125 14.132812 C 50.257812 17.640625 56.199219 21.128906 62.144531 24.617188 C 53.808594 20.003906 45.578125 15.203125 37.441406 10.246094 C 37.457031 10.21875 37.46875 10.195312 37.484375 10.167969 C 39.621094 11.394531 41.757812 12.625 43.890625 13.851562 C 44.871094 12.457031 45.714844 12.105469 47.324219 12.574219 C 48.066406 12.789062 48.785156 13.144531 49.453125 13.546875 C 50.617188 14.253906 51.539062 15.238281 52.359375 16.375 C 52.796875 15.910156 53.320312 15.847656 53.863281 16 C 54.273438 16.113281 54.6875 16.253906 55.058594 16.453125 C 57.378906 17.6875 59.277344 19.421875 60.921875 21.453125 C 61.3125 21.933594 61.527344 22.5 61.449219 23.140625 C 61.335938 22.832031 61.257812 22.507812 61.109375 22.21875 Z M 61.109375 22.21875 " fill-opacity="1" fill-rule="nonzero"/><path fill="#27272a" d="M 33.1875 40.457031 C 35.347656 40.207031 37.476562 39.960938 39.628906 39.714844 L 39.628906 40.242188 C 37.503906 40.5625 35.386719 40.878906 33.234375 41.203125 C 33.214844 40.929688 33.203125 40.707031 33.1875 40.457031 Z M 33.1875 40.457031 " fill-opacity="1" fill-rule="nonzero"/><path fill="#27272a" d="M 39.699219 40.996094 C 37.554688 41.359375 35.464844 41.714844 33.339844 42.074219 C 33.320312 41.855469 33.296875 41.636719 33.273438 41.410156 C 34.367188 41.238281 35.410156 41.070312 36.457031 40.914062 C 37.511719 40.753906 38.570312 40.601562 39.660156 40.445312 C 39.671875 40.640625 39.683594 40.804688 39.699219 40.996094 Z M 39.699219 40.996094 " fill-opacity="1" fill-rule="nonzero"/><path fill="#27272a" d="M 27.765625 9.65625 C 27 9.453125 26.226562 9.347656 25.445312 9.605469 C 24.917969 9.78125 24.585938 10.167969 24.34375 10.671875 C 23.804688 10.164062 23.222656 10.046875 22.570312 10.402344 C 23.070312 9.855469 23.429688 9.859375 24.164062 10.359375 C 24.390625 10.023438 24.558594 9.652344 24.832031 9.394531 C 25.320312 8.9375 25.960938 8.890625 26.582031 9.007812 C 27.210938 9.128906 27.863281 9.253906 28.429688 9.527344 C 30.160156 10.375 31.851562 11.292969 33.558594 12.183594 C 33.578125 12.191406 33.585938 12.222656 33.664062 12.332031 C 33.058594 12.027344 32.550781 11.773438 32.042969 11.519531 C 30.652344 10.820312 29.285156 10.058594 27.765625 9.65625 Z M 27.765625 9.65625 " fill-opacity="1" fill-rule="nonzero"/><path fill="#27272a" d="M 30.011719 45.203125 C 28.726562 45.445312 27.953125 44.902344 27.488281 43.832031 C 27.039062 43.925781 26.621094 44.019531 26.199219 44.109375 C 26.191406 44.082031 26.179688 44.054688 26.171875 44.027344 C 27.007812 43.578125 27.847656 43.125 28.742188 42.644531 C 28.8125 43.726562 29.015625 44.632812 30.011719 45.203125 Z M 30.011719 45.203125 " fill-opacity="1" fill-rule="nonzero"/><path fill="#27272a" d="M 32.246094 43.996094 C 32.316406 43.910156 32.453125 43.839844 32.566406 43.832031 C 32.980469 43.8125 33.398438 43.828125 33.8125 43.8125 C 34.40625 43.789062 34.957031 43.660156 35.40625 43.21875 C 35.714844 42.914062 36.191406 42.96875 36.503906 43.289062 C 36.617188 43.40625 36.746094 43.507812 36.925781 43.671875 C 35.144531 44.058594 33.414062 44.441406 31.671875 44.820312 C 31.867188 44.535156 32.042969 44.253906 32.246094 43.996094 Z M 32.246094 43.996094 " fill-opacity="1" fill-rule="nonzero"/><path fill="#27272a" d="M 39.285156 41.585938 C 37.996094 41.871094 36.703125 42.128906 35.410156 42.394531 C 34.753906 42.53125 34.097656 42.671875 33.425781 42.816406 C 33.410156 42.605469 33.398438 42.453125 33.386719 42.269531 C 35.5 41.914062 37.582031 41.558594 39.675781 41.207031 C 39.804688 41.632812 39.4375 41.554688 39.285156 41.585938 Z M 39.285156 41.585938 " fill-opacity="1" fill-rule="nonzero"/><g clip-path="url(#82c2432cd7)"><path fill="#27272a" d="M 61.964844 23.171875 C 62.125 23.171875 62.300781 23.132812 62.445312 23.179688 C 63.011719 23.378906 63.621094 23.523438 64.125 23.835938 C 65.964844 24.980469 67.769531 26.183594 69.585938 27.363281 C 69.804688 27.507812 70.019531 27.660156 70.234375 27.808594 C 70.082031 27.792969 69.960938 27.726562 69.84375 27.65625 C 67.832031 26.421875 65.828125 25.183594 63.8125 23.957031 C 63.242188 23.609375 62.648438 23.304688 61.964844 23.171875 Z M 61.964844 23.171875 " fill-opacity="1" fill-rule="nonzero"/></g><g clip-path="url(#ff82d0c8b8)"><path fill="#27272a" d="M 19.878906 11.753906 C 16.621094 10.335938 13.359375 8.917969 10.101562 7.5 C 10.121094 7.453125 10.140625 7.40625 10.164062 7.359375 C 13.429688 8.773438 16.695312 10.1875 19.957031 11.601562 C 19.933594 11.652344 19.90625 11.703125 19.878906 11.753906 Z M 19.878906 11.753906 " fill-opacity="1" fill-rule="nonzero"/></g><path fill="#27272a" d="M 17.953125 8.648438 C 17.125 8.488281 16.304688 8.4375 15.71875 9.234375 C 15.710938 9.242188 15.675781 9.230469 15.625 9.226562 C 15.632812 9.175781 15.636719 9.125 15.644531 9.074219 L 15.640625 9.078125 C 15.636719 9.074219 15.632812 9.074219 15.628906 9.070312 C 15.632812 9.070312 15.640625 9.074219 15.644531 9.074219 C 16 8.347656 16.5 8.097656 17.496094 8.273438 C 19.191406 8.566406 20.6875 9.386719 22.199219 10.160156 C 22.082031 10.148438 21.976562 10.105469 21.871094 10.0625 C 20.589844 9.519531 19.328125 8.917969 17.953125 8.648438 Z M 17.953125 8.648438 " fill-opacity="1" fill-rule="nonzero"/><path fill="#27272a" d="M 55.171875 21.953125 C 52.167969 20.296875 49.160156 18.640625 46.15625 16.988281 C 46.175781 16.949219 46.195312 16.910156 46.21875 16.875 C 49.222656 18.53125 52.226562 20.191406 55.230469 21.847656 C 55.210938 21.882812 55.191406 21.917969 55.171875 21.953125 Z M 55.171875 21.953125 " fill-opacity="1" fill-rule="nonzero"/><path fill="#27272a" d="M 36.335938 42.46875 C 36.683594 42.390625 37.011719 42.304688 37.347656 42.257812 C 37.4375 42.246094 37.570312 42.339844 37.636719 42.425781 C 37.867188 42.714844 38.074219 43.023438 38.285156 43.316406 C 37.644531 43.585938 36.867188 43.28125 36.335938 42.46875 Z M 36.335938 42.46875 " fill-opacity="1" fill-rule="nonzero"/><path fill="#27272a" d="M 58.609375 38.722656 C 58.242188 38.800781 57.867188 38.875 57.488281 38.953125 C 57.535156 38.707031 57.875 38.5 57.511719 38.28125 C 57.796875 38.195312 58.078125 38.109375 58.3125 38.035156 C 58.425781 38.300781 58.519531 38.519531 58.609375 38.722656 Z M 58.609375 38.722656 " fill-opacity="1" fill-rule="nonzero"/><path fill="#27272a" d="M 57.503906 38.285156 C 57.503906 38.285156 57.496094 38.273438 57.496094 38.273438 C 57.503906 38.277344 57.507812 38.277344 57.511719 38.28125 C 57.507812 38.28125 57.507812 38.28125 57.503906 38.285156 Z M 57.503906 38.285156 " fill-opacity="1" fill-rule="nonzero"/><path fill="#27272a" d="M 59.390625 37.832031 C 59.253906 38.050781 59.179688 38.167969 59.105469 38.289062 C 58.910156 38.601562 58.75 38.605469 58.5625 38.296875 C 58.519531 38.230469 58.507812 38.140625 58.476562 38.039062 C 58.777344 37.96875 59.042969 37.910156 59.390625 37.832031 Z M 59.390625 37.832031 " fill-opacity="1" fill-rule="nonzero"/><path fill="#27272a" d="M 14.027344 8.859375 C 14.40625 8.449219 14.707031 8.40625 15.113281 8.667969 C 15.296875 8.789062 15.457031 8.933594 15.628906 9.070312 C 15.539062 9.042969 15.4375 9.03125 15.367188 8.980469 C 14.972656 8.6875 14.558594 8.539062 14.027344 8.859375 Z M 14.027344 8.859375 " fill-opacity="1" fill-rule="nonzero"/><path fill="#27272a" d="M 59.25 30.703125 C 56.488281 30.136719 53.722656 29.582031 50.960938 28.996094 C 48.179688 28.402344 45.402344 27.78125 42.628906 27.160156 C 41.898438 26.996094 41.515625 26.492188 41.511719 25.75 C 41.507812 25.382812 41.511719 25.011719 41.511719 24.640625 L 41.527344 24.640625 C 41.527344 24.203125 41.503906 23.757812 41.53125 23.320312 C 41.578125 22.625 42.0625 22.308594 42.722656 22.515625 C 42.800781 22.542969 42.878906 22.574219 42.957031 22.601562 C 45.742188 23.570312 48.527344 24.550781 51.316406 25.511719 C 54.027344 26.449219 56.742188 27.367188 59.453125 28.296875 C 59.957031 28.46875 60.089844 28.652344 60.09375 29.191406 C 60.09375 29.464844 60.09375 29.742188 60.089844 30.015625 C 60.082031 30.65625 59.867188 30.832031 59.25 30.707031 Z M 59.25 30.703125 " fill-opacity="1" fill-rule="nonzero"/><path fill="#27272a" d="M 18.132812 33.816406 C 16.238281 34.714844 14.210938 34.929688 11.902344 34.953125 C 11.550781 34.933594 10.949219 34.949219 10.363281 34.855469 C 9.613281 34.738281 8.855469 34.601562 8.148438 34.347656 C 7.28125 34.035156 6.929688 33.40625 7.015625 32.492188 C 7.105469 31.535156 7.554688 30.726562 8.171875 30.003906 C 8.320312 29.832031 8.5 29.789062 8.714844 29.902344 C 9.5625 30.339844 10.488281 30.417969 11.421875 30.445312 C 14.878906 30.550781 18.300781 30.222656 21.703125 29.640625 C 21.871094 29.613281 22.054688 29.6875 22.230469 29.71875 C 22.191406 29.902344 22.203125 30.121094 22.109375 30.273438 C 21.125 31.832031 19.804688 33.023438 18.136719 33.816406 Z M 10.402344 31.699219 C 10.363281 31.167969 9.914062 30.816406 9.386719 30.902344 C 8.722656 31.011719 8.15625 31.6875 8.152344 32.367188 C 8.148438 33.046875 8.640625 33.425781 9.289062 33.238281 C 9.914062 33.054688 10.445312 32.324219 10.402344 31.699219 Z M 19.445312 31.644531 C 19.398438 31.042969 18.96875 30.675781 18.363281 30.710938 C 17.484375 30.765625 16.71875 31.765625 16.933594 32.578125 C 17.0625 33.066406 17.390625 33.324219 17.890625 33.328125 C 18.707031 33.332031 19.515625 32.460938 19.445312 31.644531 Z M 19.445312 31.644531 " fill-opacity="1" fill-rule="nonzero"/><path fill="#27272a" d="M 34.457031 21.097656 C 34.617188 20.949219 34.859375 20.894531 35.125 20.769531 C 35.125 22.289062 35.128906 23.707031 35.113281 25.125 C 35.113281 25.214844 34.992188 25.335938 34.894531 25.386719 C 33.726562 26.046875 32.527344 26.652344 31.382812 27.355469 C 30.511719 27.886719 29.714844 28.535156 28.882812 29.128906 C 30.4375 26.941406 32.371094 25.097656 34.3125 23.265625 C 34.292969 23.238281 34.273438 23.214844 34.25 23.191406 C 33.367188 23.816406 32.480469 24.445312 31.503906 25.140625 C 31.617188 24.898438 31.667969 24.746094 31.753906 24.609375 C 32.234375 23.859375 32.683594 23.085938 33.214844 22.371094 C 33.566406 21.898438 34.019531 21.5 34.457031 21.097656 Z M 34.457031 21.097656 " fill-opacity="1" fill-rule="nonzero"/><path fill="#27272a" d="M 57.847656 26.242188 C 54.703125 24.980469 51.558594 23.714844 48.410156 22.457031 C 44.710938 20.972656 41.011719 19.492188 37.308594 18.019531 C 36.488281 17.695312 35.636719 17.535156 34.753906 17.695312 C 34.152344 17.808594 33.558594 17.957031 32.960938 18.085938 C 32.953125 18.058594 32.945312 18.027344 32.9375 18 C 33.636719 17.828125 34.324219 17.605469 35.027344 17.5 C 36.289062 17.304688 37.492188 17.621094 38.648438 18.101562 C 43.6875 20.203125 48.726562 22.308594 53.761719 24.417969 C 55.242188 25.039062 56.71875 25.667969 58.195312 26.292969 C 58.1875 26.316406 58.179688 26.339844 58.175781 26.359375 C 58.066406 26.320312 57.957031 26.285156 57.847656 26.242188 Z M 57.847656 26.242188 " fill-opacity="1" fill-rule="nonzero"/><path fill="#27272a" d="M 17.851562 36.027344 C 18.917969 36.101562 19.519531 36.730469 19.417969 37.722656 C 19.121094 36.699219 18.824219 36.40625 17.980469 36.257812 C 17.839844 36.230469 17.695312 36.230469 17.554688 36.226562 C 14.171875 36.140625 10.789062 36.0625 7.410156 35.96875 C 6.695312 35.949219 6.007812 35.933594 5.605469 36.695312 C 5.761719 36.058594 6.195312 35.773438 6.921875 35.789062 C 10.027344 35.851562 13.136719 35.910156 16.246094 35.972656 C 16.78125 35.984375 17.316406 35.988281 17.851562 36.027344 Z M 17.851562 36.027344 " fill-opacity="1" fill-rule="nonzero"/><path fill="#27272a" d="M 68.367188 32.292969 C 67.375 32.101562 66.382812 31.921875 65.394531 31.703125 C 65.253906 31.671875 65.066406 31.472656 65.054688 31.332031 C 65.007812 30.910156 65.035156 30.480469 65.035156 29.980469 C 65.25 30.035156 65.414062 30.066406 65.566406 30.117188 C 66.402344 30.386719 67.234375 30.667969 68.074219 30.9375 C 68.8125 31.171875 68.804688 31.164062 68.78125 31.945312 C 68.769531 32.25 68.65625 32.351562 68.367188 32.292969 Z M 68.367188 32.292969 " fill-opacity="1" fill-rule="nonzero"/><path fill="#27272a" d="M 63.65625 29.699219 C 63.785156 29.746094 63.960938 29.886719 63.972656 29.996094 C 64.007812 30.453125 63.984375 30.914062 63.984375 31.40625 C 63.808594 31.390625 63.691406 31.378906 63.574219 31.367188 C 63.015625 31.304688 62.949219 31.234375 62.941406 30.6875 C 62.941406 30.523438 62.941406 30.355469 62.945312 30.1875 C 62.949219 29.429688 62.953125 29.421875 63.65625 29.695312 Z M 63.65625 29.699219 " fill-opacity="1" fill-rule="nonzero"/><path fill="#27272a" d="M 63.078125 28.359375 C 63.089844 28.324219 63.105469 28.285156 63.121094 28.246094 C 64.015625 28.597656 64.90625 28.945312 65.800781 29.296875 C 65.789062 29.328125 65.777344 29.359375 65.765625 29.394531 C 64.867188 29.050781 63.972656 28.703125 63.078125 28.359375 Z M 63.078125 28.359375 " fill-opacity="1" fill-rule="nonzero"/><path fill="#27272a" d="M 37.132812 20.375 C 37.226562 20.105469 37.371094 19.875 37.695312 19.851562 C 38.007812 19.828125 38.246094 20.003906 38.339844 20.265625 C 38.476562 20.652344 38.609375 21.0625 38.617188 21.464844 C 38.652344 22.855469 38.632812 24.25 38.628906 25.640625 C 38.628906 25.734375 38.613281 25.824219 38.605469 25.949219 C 38.070312 25.839844 37.5625 25.738281 37.011719 25.628906 C 37.011719 24.019531 37.007812 22.4375 37.015625 20.855469 C 37.015625 20.695312 37.078125 20.53125 37.132812 20.375 Z M 37.132812 20.375 " fill-opacity="1" fill-rule="nonzero"/><path fill="#27272a" d="M 37.976562 26.78125 C 38.027344 27.292969 38 27.816406 38 28.34375 C 37.859375 28.34375 37.757812 28.347656 37.652344 28.339844 C 37.582031 28.335938 37.515625 28.308594 37.449219 28.292969 L 37.449219 26.472656 C 37.675781 26.597656 37.96875 26.675781 37.976562 26.78125 Z M 37.976562 26.78125 " fill-opacity="1" fill-rule="nonzero"/><g fill="#27272a" fill-opacity="1"><g transform="translate(78.178766, 44.647654)"><g><path d="M 12.671875 0 C 7.242188 0 4.53125 -2.546875 4.53125 -7.640625 L 4.53125 -14.75 L 1.5 -14.75 C 1.238281 -14.75 1.007812 -14.84375 0.8125 -15.03125 C 0.625 -15.226562 0.53125 -15.457031 0.53125 -15.71875 L 0.53125 -19.015625 C 0.53125 -19.296875 0.625 -19.523438 0.8125 -19.703125 C 1.007812 -19.890625 1.238281 -19.984375 1.5 -19.984375 L 4.53125 -19.984375 L 4.53125 -26.3125 C 4.53125 -26.59375 4.625 -26.820312 4.8125 -27 C 5.007812 -27.1875 5.238281 -27.28125 5.5 -27.28125 L 10.21875 -27.28125 C 10.5 -27.28125 10.726562 -27.1875 10.90625 -27 C 11.09375 -26.820312 11.1875 -26.59375 11.1875 -26.3125 L 11.1875 -19.984375 L 15.984375 -19.984375 C 16.265625 -19.984375 16.5 -19.890625 16.6875 -19.703125 C 16.882812 -19.523438 16.984375 -19.296875 16.984375 -19.015625 L 16.984375 -15.71875 C 16.984375 -15.4375 16.882812 -15.203125 16.6875 -15.015625 C 16.5 -14.835938 16.265625 -14.75 15.984375 -14.75 L 11.1875 -14.75 L 11.1875 -8.21875 C 11.1875 -7.320312 11.351562 -6.644531 11.6875 -6.1875 C 12.019531 -5.726562 12.554688 -5.5 13.296875 -5.5 L 16.328125 -5.5 C 16.609375 -5.5 16.835938 -5.398438 17.015625 -5.203125 C 17.203125 -5.015625 17.296875 -4.78125 17.296875 -4.5 L 17.296875 -0.953125 C 17.296875 -0.703125 17.203125 -0.476562 17.015625 -0.28125 C 16.835938 -0.09375 16.609375 0 16.328125 0 Z M 12.671875 0 "/></g></g></g><g fill="#27272a" fill-opacity="1"><g transform="translate(96.386867, 44.647654)"><g><path d="M 3.15625 0 C 2.894531 0 2.664062 -0.09375 2.46875 -0.28125 C 2.28125 -0.476562 2.1875 -0.703125 2.1875 -0.953125 L 2.1875 -18.984375 C 2.1875 -19.265625 2.273438 -19.5 2.453125 -19.6875 C 2.640625 -19.882812 2.875 -19.984375 3.15625 -19.984375 L 7.84375 -19.984375 C 8.125 -19.984375 8.359375 -19.882812 8.546875 -19.6875 C 8.742188 -19.5 8.84375 -19.265625 8.84375 -18.984375 L 8.84375 -17.515625 C 9.550781 -18.316406 10.382812 -18.925781 11.34375 -19.34375 C 12.3125 -19.769531 13.382812 -19.984375 14.5625 -19.984375 L 16.296875 -19.984375 C 16.578125 -19.984375 16.804688 -19.890625 16.984375 -19.703125 C 17.160156 -19.523438 17.25 -19.296875 17.25 -19.015625 L 17.25 -14.828125 C 17.25 -14.578125 17.160156 -14.351562 16.984375 -14.15625 C 16.804688 -13.96875 16.578125 -13.875 16.296875 -13.875 L 12.40625 -13.875 C 11.382812 -13.875 10.597656 -13.59375 10.046875 -13.03125 C 9.492188 -12.46875 9.21875 -11.671875 9.21875 -10.640625 L 9.21875 -0.953125 C 9.21875 -0.671875 9.117188 -0.441406 8.921875 -0.265625 C 8.734375 -0.0859375 8.5 0 8.21875 0 Z M 3.15625 0 "/></g></g></g><g fill="#27272a" fill-opacity="1"><g transform="translate(114.095578, 44.647654)"><g><path d="M 8.21875 0.390625 C 6.863281 0.390625 5.628906 0.128906 4.515625 -0.390625 C 3.398438 -0.921875 2.523438 -1.644531 1.890625 -2.5625 C 1.265625 -3.488281 0.953125 -4.503906 0.953125 -5.609375 C 0.953125 -7.347656 1.675781 -8.757812 3.125 -9.84375 C 4.570312 -10.9375 6.566406 -11.691406 9.109375 -12.109375 L 13.875 -12.828125 L 13.875 -13.296875 C 13.875 -14.242188 13.679688 -14.929688 13.296875 -15.359375 C 12.910156 -15.796875 12.253906 -16.015625 11.328125 -16.015625 C 10.816406 -16.015625 10.390625 -15.925781 10.046875 -15.75 C 9.703125 -15.570312 9.3125 -15.304688 8.875 -14.953125 C 8.539062 -14.671875 8.242188 -14.460938 7.984375 -14.328125 C 7.890625 -14.148438 7.765625 -14.0625 7.609375 -14.0625 L 3.15625 -14.0625 C 2.894531 -14.0625 2.679688 -14.144531 2.515625 -14.3125 C 2.347656 -14.476562 2.28125 -14.675781 2.3125 -14.90625 C 2.332031 -15.59375 2.675781 -16.363281 3.34375 -17.21875 C 4.007812 -18.082031 5.019531 -18.820312 6.375 -19.4375 C 7.738281 -20.050781 9.414062 -20.359375 11.40625 -20.359375 C 14.582031 -20.359375 16.9375 -19.660156 18.46875 -18.265625 C 20.007812 -16.867188 20.78125 -14.984375 20.78125 -12.609375 L 20.78125 -0.953125 C 20.78125 -0.703125 20.691406 -0.476562 20.515625 -0.28125 C 20.335938 -0.09375 20.109375 0 19.828125 0 L 15.09375 0 C 14.84375 0 14.617188 -0.09375 14.421875 -0.28125 C 14.234375 -0.476562 14.140625 -0.703125 14.140625 -0.953125 L 14.140625 -2.3125 C 13.578125 -1.507812 12.796875 -0.859375 11.796875 -0.359375 C 10.796875 0.140625 9.601562 0.390625 8.21875 0.390625 Z M 10.140625 -4.15625 C 11.265625 -4.15625 12.179688 -4.523438 12.890625 -5.265625 C 13.597656 -6.003906 13.953125 -7.078125 13.953125 -8.484375 L 13.953125 -8.953125 L 10.765625 -8.421875 C 8.609375 -8.003906 7.53125 -7.234375 7.53125 -6.109375 C 7.53125 -5.515625 7.78125 -5.039062 8.28125 -4.6875 C 8.78125 -4.332031 9.398438 -4.15625 10.140625 -4.15625 Z M 10.140625 -4.15625 "/></g></g></g><g fill="#27272a" fill-opacity="1"><g transform="translate(136.874904, 44.647654)"><g><path d="M 3.15625 -22.75 C 2.875 -22.75 2.640625 -22.84375 2.453125 -23.03125 C 2.273438 -23.226562 2.1875 -23.46875 2.1875 -23.75 L 2.1875 -27.3125 C 2.1875 -27.59375 2.28125 -27.828125 2.46875 -28.015625 C 2.664062 -28.210938 2.894531 -28.3125 3.15625 -28.3125 L 7.953125 -28.3125 C 8.234375 -28.3125 8.46875 -28.210938 8.65625 -28.015625 C 8.851562 -27.828125 8.953125 -27.59375 8.953125 -27.3125 L 8.953125 -23.75 C 8.953125 -23.46875 8.851562 -23.226562 8.65625 -23.03125 C 8.46875 -22.84375 8.234375 -22.75 7.953125 -22.75 Z M 3.15625 0 C 2.894531 0 2.664062 -0.09375 2.46875 -0.28125 C 2.28125 -0.476562 2.1875 -0.703125 2.1875 -0.953125 L 2.1875 -19.015625 C 2.1875 -19.296875 2.28125 -19.523438 2.46875 -19.703125 C 2.664062 -19.890625 2.894531 -19.984375 3.15625 -19.984375 L 7.953125 -19.984375 C 8.234375 -19.984375 8.46875 -19.890625 8.65625 -19.703125 C 8.851562 -19.523438 8.953125 -19.296875 8.953125 -19.015625 L 8.953125 -0.953125 C 8.953125 -0.671875 8.851562 -0.441406 8.65625 -0.265625 C 8.46875 -0.0859375 8.234375 0 7.953125 0 Z M 3.15625 0 "/></g></g></g><g fill="#27272a" fill-opacity="1"><g transform="translate(148.01488, 44.647654)"><g><path d="M 3.15625 0 C 2.894531 0 2.664062 -0.09375 2.46875 -0.28125 C 2.28125 -0.476562 2.1875 -0.703125 2.1875 -0.953125 L 2.1875 -19.015625 C 2.1875 -19.296875 2.28125 -19.523438 2.46875 -19.703125 C 2.664062 -19.890625 2.894531 -19.984375 3.15625 -19.984375 L 7.875 -19.984375 C 8.15625 -19.984375 8.382812 -19.890625 8.5625 -19.703125 C 8.75 -19.523438 8.84375 -19.296875 8.84375 -19.015625 L 8.84375 -17.5625 C 9.53125 -18.40625 10.414062 -19.082031 11.5 -19.59375 C 12.59375 -20.101562 13.84375 -20.359375 15.25 -20.359375 C 16.707031 -20.359375 18.003906 -20.023438 19.140625 -19.359375 C 20.285156 -18.691406 21.1875 -17.707031 21.84375 -16.40625 C 22.5 -15.101562 22.828125 -13.53125 22.828125 -11.6875 L 22.828125 -0.953125 C 22.828125 -0.703125 22.734375 -0.476562 22.546875 -0.28125 C 22.367188 -0.09375 22.140625 0 21.859375 0 L 16.75 0 C 16.46875 0 16.226562 -0.0859375 16.03125 -0.265625 C 15.84375 -0.441406 15.75 -0.671875 15.75 -0.953125 L 15.75 -11.453125 C 15.75 -12.597656 15.472656 -13.476562 14.921875 -14.09375 C 14.367188 -14.707031 13.570312 -15.015625 12.53125 -15.015625 C 11.5 -15.015625 10.6875 -14.703125 10.09375 -14.078125 C 9.507812 -13.453125 9.21875 -12.578125 9.21875 -11.453125 L 9.21875 -0.953125 C 9.21875 -0.703125 9.128906 -0.476562 8.953125 -0.28125 C 8.773438 -0.09375 8.546875 0 8.265625 0 Z M 3.15625 0 "/></g></g></g><g fill="#27272a" fill-opacity="1"><g transform="translate(172.830123, 44.647654)"><g><path d="M 10.5625 0.390625 C 8.46875 0.390625 6.710938 0.09375 5.296875 -0.5 C 3.890625 -1.09375 2.847656 -1.796875 2.171875 -2.609375 C 1.492188 -3.429688 1.15625 -4.175781 1.15625 -4.84375 C 1.15625 -5.09375 1.25 -5.300781 1.4375 -5.46875 C 1.632812 -5.632812 1.847656 -5.71875 2.078125 -5.71875 L 6.71875 -5.71875 C 6.875 -5.71875 7.003906 -5.671875 7.109375 -5.578125 C 7.546875 -5.296875 7.789062 -5.128906 7.84375 -5.078125 C 8.320312 -4.710938 8.773438 -4.429688 9.203125 -4.234375 C 9.628906 -4.046875 10.132812 -3.953125 10.71875 -3.953125 C 11.40625 -3.953125 11.972656 -4.085938 12.421875 -4.359375 C 12.878906 -4.628906 13.109375 -5.007812 13.109375 -5.5 C 13.109375 -5.90625 12.984375 -6.234375 12.734375 -6.484375 C 12.492188 -6.742188 12.03125 -6.992188 11.34375 -7.234375 C 10.664062 -7.484375 9.640625 -7.734375 8.265625 -7.984375 C 3.828125 -8.890625 1.609375 -10.941406 1.609375 -14.140625 C 1.609375 -15.191406 1.945312 -16.195312 2.625 -17.15625 C 3.3125 -18.113281 4.3125 -18.882812 5.625 -19.46875 C 6.945312 -20.0625 8.53125 -20.359375 10.375 -20.359375 C 12.238281 -20.359375 13.859375 -20.070312 15.234375 -19.5 C 16.609375 -18.925781 17.648438 -18.234375 18.359375 -17.421875 C 19.078125 -16.617188 19.4375 -15.882812 19.4375 -15.21875 C 19.4375 -14.988281 19.351562 -14.78125 19.1875 -14.59375 C 19.019531 -14.414062 18.820312 -14.328125 18.59375 -14.328125 L 14.375 -14.328125 C 14.144531 -14.328125 13.960938 -14.378906 13.828125 -14.484375 C 13.523438 -14.640625 13.21875 -14.832031 12.90625 -15.0625 C 12.445312 -15.363281 12.046875 -15.597656 11.703125 -15.765625 C 11.359375 -15.929688 10.914062 -16.015625 10.375 -16.015625 C 9.726562 -16.015625 9.226562 -15.875 8.875 -15.59375 C 8.519531 -15.3125 8.34375 -14.957031 8.34375 -14.53125 C 8.34375 -14.144531 8.445312 -13.828125 8.65625 -13.578125 C 8.875 -13.335938 9.320312 -13.101562 10 -12.875 C 10.6875 -12.644531 11.722656 -12.398438 13.109375 -12.140625 C 15.617188 -11.703125 17.441406 -10.925781 18.578125 -9.8125 C 19.710938 -8.695312 20.28125 -7.398438 20.28125 -5.921875 C 20.28125 -3.992188 19.425781 -2.457031 17.71875 -1.3125 C 16.019531 -0.175781 13.632812 0.390625 10.5625 0.390625 Z M 10.5625 0.390625 "/></g></g></g><g fill="#27272a" fill-opacity="1"><g transform="translate(194.22655, 44.647654)"><g><path d="M 7.796875 0 C 7.441406 0 7.164062 -0.0820312 6.96875 -0.25 C 6.78125 -0.414062 6.632812 -0.648438 6.53125 -0.953125 L 1 -18.75 L 0.921875 -19.09375 C 0.921875 -19.351562 1.007812 -19.566406 1.1875 -19.734375 C 1.363281 -19.898438 1.570312 -19.984375 1.8125 -19.984375 L 6 -19.984375 C 6.300781 -19.984375 6.550781 -19.898438 6.75 -19.734375 C 6.957031 -19.566406 7.085938 -19.378906 7.140625 -19.171875 L 10.296875 -8.53125 L 13.640625 -19.09375 C 13.691406 -19.320312 13.816406 -19.523438 14.015625 -19.703125 C 14.222656 -19.890625 14.492188 -19.984375 14.828125 -19.984375 L 17.484375 -19.984375 C 17.816406 -19.984375 18.082031 -19.890625 18.28125 -19.703125 C 18.488281 -19.523438 18.632812 -19.320312 18.71875 -19.09375 L 22.046875 -8.53125 L 25.171875 -19.171875 C 25.242188 -19.378906 25.375 -19.566406 25.5625 -19.734375 C 25.757812 -19.898438 26.007812 -19.984375 26.3125 -19.984375 L 30.5 -19.984375 C 30.757812 -19.984375 30.972656 -19.898438 31.140625 -19.734375 C 31.304688 -19.566406 31.390625 -19.351562 31.390625 -19.09375 C 31.390625 -18.96875 31.378906 -18.851562 31.359375 -18.75 L 25.78125 -0.953125 C 25.601562 -0.316406 25.191406 0 24.546875 0 L 20.90625 0 C 20.257812 0 19.820312 -0.316406 19.59375 -0.953125 L 16.171875 -11.1875 L 12.71875 -0.953125 C 12.539062 -0.316406 12.117188 0 11.453125 0 Z M 7.796875 0 "/></g></g></g><g fill="#27272a" fill-opacity="1"><g transform="translate(226.532477, 44.647654)"><g><path d="M 3.15625 -22.75 C 2.875 -22.75 2.640625 -22.84375 2.453125 -23.03125 C 2.273438 -23.226562 2.1875 -23.46875 2.1875 -23.75 L 2.1875 -27.3125 C 2.1875 -27.59375 2.28125 -27.828125 2.46875 -28.015625 C 2.664062 -28.210938 2.894531 -28.3125 3.15625 -28.3125 L 7.953125 -28.3125 C 8.234375 -28.3125 8.46875 -28.210938 8.65625 -28.015625 C 8.851562 -27.828125 8.953125 -27.59375 8.953125 -27.3125 L 8.953125 -23.75 C 8.953125 -23.46875 8.851562 -23.226562 8.65625 -23.03125 C 8.46875 -22.84375 8.234375 -22.75 7.953125 -22.75 Z M 3.15625 0 C 2.894531 0 2.664062 -0.09375 2.46875 -0.28125 C 2.28125 -0.476562 2.1875 -0.703125 2.1875 -0.953125 L 2.1875 -19.015625 C 2.1875 -19.296875 2.28125 -19.523438 2.46875 -19.703125 C 2.664062 -19.890625 2.894531 -19.984375 3.15625 -19.984375 L 7.953125 -19.984375 C 8.234375 -19.984375 8.46875 -19.890625 8.65625 -19.703125 C 8.851562 -19.523438 8.953125 -19.296875 8.953125 -19.015625 L 8.953125 -0.953125 C 8.953125 -0.671875 8.851562 -0.441406 8.65625 -0.265625 C 8.46875 -0.0859375 8.234375 0 7.953125 0 Z M 3.15625 0 "/></g></g></g><g fill="#27272a" fill-opacity="1"><g transform="translate(237.672453, 44.647654)"><g><path d="M 5.5 0 C 5.21875 0 4.976562 -0.0859375 4.78125 -0.265625 C 4.59375 -0.441406 4.5 -0.671875 4.5 -0.953125 L 4.5 -14.75 L 1.609375 -14.75 C 1.328125 -14.75 1.085938 -14.835938 0.890625 -15.015625 C 0.703125 -15.203125 0.609375 -15.4375 0.609375 -15.71875 L 0.609375 -19.015625 C 0.609375 -19.296875 0.703125 -19.523438 0.890625 -19.703125 C 1.085938 -19.890625 1.328125 -19.984375 1.609375 -19.984375 L 4.5 -19.984375 L 4.5 -21.125 C 4.5 -23.6875 5.238281 -25.546875 6.71875 -26.703125 C 8.207031 -27.859375 10.335938 -28.4375 13.109375 -28.4375 L 16.140625 -28.4375 C 16.421875 -28.4375 16.65625 -28.34375 16.84375 -28.15625 C 17.039062 -27.976562 17.140625 -27.75 17.140625 -27.46875 L 17.140625 -24.171875 C 17.140625 -23.890625 17.039062 -23.65625 16.84375 -23.46875 C 16.65625 -23.289062 16.421875 -23.203125 16.140625 -23.203125 L 13.40625 -23.203125 C 12.59375 -23.203125 12.007812 -23.015625 11.65625 -22.640625 C 11.3125 -22.273438 11.140625 -21.707031 11.140625 -20.9375 L 11.140625 -19.984375 L 15.75 -19.984375 C 16.03125 -19.984375 16.265625 -19.890625 16.453125 -19.703125 C 16.648438 -19.523438 16.75 -19.296875 16.75 -19.015625 L 16.75 -15.71875 C 16.75 -15.4375 16.648438 -15.203125 16.453125 -15.015625 C 16.265625 -14.835938 16.03125 -14.75 15.75 -14.75 L 11.140625 -14.75 L 11.140625 -0.953125 C 11.140625 -0.703125 11.050781 -0.476562 10.875 -0.28125 C 10.695312 -0.09375 10.46875 0 10.1875 0 Z M 5.5 0 "/></g></g></g><g fill="#27272a" fill-opacity="1"><g transform="translate(254.88179, 44.647654)"><g><path d="M 12.671875 0 C 7.242188 0 4.53125 -2.546875 4.53125 -7.640625 L 4.53125 -14.75 L 1.5 -14.75 C 1.238281 -14.75 1.007812 -14.84375 0.8125 -15.03125 C 0.625 -15.226562 0.53125 -15.457031 0.53125 -15.71875 L 0.53125 -19.015625 C 0.53125 -19.296875 0.625 -19.523438 0.8125 -19.703125 C 1.007812 -19.890625 1.238281 -19.984375 1.5 -19.984375 L 4.53125 -19.984375 L 4.53125 -26.3125 C 4.53125 -26.59375 4.625 -26.820312 4.8125 -27 C 5.007812 -27.1875 5.238281 -27.28125 5.5 -27.28125 L 10.21875 -27.28125 C 10.5 -27.28125 10.726562 -27.1875 10.90625 -27 C 11.09375 -26.820312 11.1875 -26.59375 11.1875 -26.3125 L 11.1875 -19.984375 L 15.984375 -19.984375 C 16.265625 -19.984375 16.5 -19.890625 16.6875 -19.703125 C 16.882812 -19.523438 16.984375 -19.296875 16.984375 -19.015625 L 16.984375 -15.71875 C 16.984375 -15.4375 16.882812 -15.203125 16.6875 -15.015625 C 16.5 -14.835938 16.265625 -14.75 15.984375 -14.75 L 11.1875 -14.75 L 11.1875 -8.21875 C 11.1875 -7.320312 11.351562 -6.644531 11.6875 -6.1875 C 12.019531 -5.726562 12.554688 -5.5 13.296875 -5.5 L 16.328125 -5.5 C 16.609375 -5.5 16.835938 -5.398438 17.015625 -5.203125 C 17.203125 -5.015625 17.296875 -4.78125 17.296875 -4.5 L 17.296875 -0.953125 C 17.296875 -0.703125 17.203125 -0.476562 17.015625 -0.28125 C 16.835938 -0.09375 16.609375 0 16.328125 0 Z M 12.671875 0 "/></g></g></g></svg>