<svg xmlns="http://www.w3.org/2000/svg" viewBox="0 0 750 500"><g id="freepik--background-simple--inject-3"><path d="M692.41,136.84c-13-20.68-29.06-39.37-48.52-54.7-66.9-52.7-167-57.37-245.3-30.53-23.14,7.93-45.23,19.21-64.12,34.88-13.73,11.39-25.49,24.93-39.18,36.37-14.38,12-32.16,12.28-50.22,11.28q-39-2.16-77.81-6.59c-22.54-2.58-43.77-6.8-66.1-.58C63.46,137.5,33.58,170.34,22,207.14c-14.5,46.22-4.58,97.12,15.38,141.26,6.91,15.28,15.21,30.2,18.81,46.64,3.74,17.09,11.29,34.55,24,47.24,14.85,14.77,38,19.93,58.09,23.74,38.87,7.4,78.86,3.31,117-6,36-8.76,72.69-23.9,110.57-24.16,42.5-.28,82.91,17.09,124.68,24.93,37.38,7,76.05,6.65,113.46,0,33.94-6,71-15.62,95.89-41,65.82-67.06,43.57-179.61,7.26-255.64A266.66,266.66,0,0,0,692.41,136.84Z" style="fill:#71717A"></path><path d="M692.41,136.84c-13-20.68-29.06-39.37-48.52-54.7-66.9-52.7-167-57.37-245.3-30.53-23.14,7.93-45.23,19.21-64.12,34.88-13.73,11.39-25.49,24.93-39.18,36.37-14.38,12-32.16,12.28-50.22,11.28q-39-2.16-77.81-6.59c-22.54-2.58-43.77-6.8-66.1-.58C63.46,137.5,33.58,170.34,22,207.14c-14.5,46.22-4.58,97.12,15.38,141.26,6.91,15.28,15.21,30.2,18.81,46.64,3.74,17.09,11.29,34.55,24,47.24,14.85,14.77,38,19.93,58.09,23.74,38.87,7.4,78.86,3.31,117-6,36-8.76,72.69-23.9,110.57-24.16,42.5-.28,82.91,17.09,124.68,24.93,37.38,7,76.05,6.65,113.46,0,33.94-6,71-15.62,95.89-41,65.82-67.06,43.57-179.61,7.26-255.64A266.66,266.66,0,0,0,692.41,136.84Z" style="fill:#fff;opacity:0.7000000000000001"></path></g><g id="freepik--Clouds--inject-3"><path d="M441.65,26s-7.55-12.35-19.22-11.67S406.65,22.53,403.22,28s-4.8,2.05-13.72-.69-13,2.06-15.1,6.86-1.37,1.37-9.6,0-8.45,3.54-13.73,6.18c-4.3,2.15-5.22,2.24-10,1-5.93-1.6-7.87-.27-9.24,2.48H471.05s-2.64-11-8.82-13.73S447.82,32.82,441.65,26Z" style="fill:none;stroke:#000;stroke-miterlimit:10;opacity:0.30000000000000004"></path><path d="M196.19,53.46S192,46.59,185.49,47s-8.78,4.58-10.69,7.64-2.67,1.14-7.64-.38-7.25,1.14-8.4,3.82-.76.76-5.35,0-4.69,2-7.63,3.43c-2.4,1.2-2.91,1.25-5.55.53-3.3-.89-4.38-.15-5.15,1.38h77.47s-1.47-6.11-4.91-7.64S199.62,57.28,196.19,53.46Z" style="fill:none;stroke:#000;stroke-miterlimit:10;opacity:0.30000000000000004"></path><path d="M719.4,132.05s-2.19-3.58-5.57-3.38-4.57,2.39-5.57,4-1.39.59-4-.2a3.22,3.22,0,0,0-4.37,2c-.6,1.39-.4.4-2.79,0s-2.45,1-4,1.79a3,3,0,0,1-2.89.27c-1.72-.46-2.28-.07-2.68.72h40.35s-.76-3.18-2.55-4S721.19,134,719.4,132.05Z" style="fill:none;stroke:#000;stroke-miterlimit:10;opacity:0.30000000000000004"></path><path d="M463.39,57.45s-2.19-3.58-5.57-3.38-4.58,2.38-5.57,4-1.4.59-4-.2a3.22,3.22,0,0,0-4.38,2c-.59,1.39-.4.39-2.78,0s-2.45,1-4,1.79a3,3,0,0,1-2.89.27c-1.72-.46-2.28-.07-2.68.72h40.35s-.76-3.18-2.55-4S465.18,59.44,463.39,57.45Z" style="fill:none;stroke:#000;stroke-miterlimit:10;opacity:0.30000000000000004"></path></g><g id="freepik--Buildings--inject-3"><g style="opacity:0.30000000000000004"><polyline points="25.99 370.17 57.63 370.17 57.63 84.05 140.85 84.05 140.85 220.23 158.73 220.23 158.73 389.43 179.37 389.43 179.37 136.87 217.88 136.87 217.88 34.53 279.78 34.53 279.78 222.98 303.17 222.98 303.17 148.02 355.44 148.02 355.44 164.52 400.14 164.52 400.14 387.36 418.02 387.36 418.02 346.78 466.86 346.78 466.86 386.67 490.24 386.67 490.24 185.84 569.33 185.84 569.33 374.29 592.03 374.29 592.03 111.56 619.54 111.56 619.54 63.42 633.3 63.42 633.3 35.91 655.31 35.91 655.31 214.04 691.07 214.04 691.07 383.92 718.58 383.92" style="fill:none;stroke:#000;stroke-miterlimit:10"></polyline><rect x="57.63" y="75.11" width="83.22" height="8.94" style="fill:none;stroke:#000;stroke-miterlimit:10"></rect><rect x="179.13" y="136.87" width="38.75" height="4.53" style="fill:none;stroke:#000;stroke-miterlimit:10"></rect><rect x="217.7" y="34.53" width="62.08" height="4.4" style="fill:none;stroke:#000;stroke-miterlimit:10"></rect><rect x="308.09" y="138.67" width="9.04" height="9.34" style="fill:none;stroke:#000;stroke-miterlimit:10"></rect><rect x="336.11" y="142.59" width="4.52" height="5.42" style="fill:none;stroke:#000;stroke-miterlimit:10"></rect><rect x="355.44" y="164.52" width="44.85" height="5.48" style="fill:none;stroke:#000;stroke-miterlimit:10"></rect><rect x="490.24" y="181.76" width="79.08" height="4.09" style="fill:none;stroke:#000;stroke-miterlimit:10"></rect><rect x="510.57" y="173.62" width="31.34" height="8.14" style="fill:none;stroke:#000;stroke-miterlimit:10"></rect><polyline points="535.27 173.92 535.27 166.39 558.17 166.39 558.17 181.46" style="fill:none;stroke:#000;stroke-miterlimit:10"></polyline><polyline points="384.35 162.27 384.35 101.39 456.83 101.39 456.83 151.84 481.76 151.84 481.76 66.02 561.78 66.02 561.78 169.81 586.72 169.81" style="fill:none;stroke:#000;stroke-miterlimit:10"></polyline><polyline points="332.16 132.12 332.16 64.86 282.87 64.86" style="fill:none;stroke:#000;stroke-miterlimit:10"></polyline><polyline points="176.76 148.94 160.52 148.94 160.52 101.97 144.86 101.97" style="fill:none;stroke:#000;stroke-miterlimit:10"></polyline><polyline points="54.99 136.18 41.65 136.18 41.65 318.83" style="fill:none;stroke:#000;stroke-miterlimit:10"></polyline><polyline points="611.07 102.55 611.07 80.51 618.03 80.51" style="fill:none;stroke:#000;stroke-miterlimit:10"></polyline><polyline points="658.04 81.09 682.97 81.09 682.97 173.29 725.3 173.29 725.3 279.98" style="fill:none;stroke:#000;stroke-miterlimit:10"></polyline><rect x="222.57" y="47.46" width="6.22" height="12.18" style="fill:none;stroke:#000;stroke-miterlimit:10"></rect><rect x="233.77" y="47.46" width="6.22" height="12.18" style="fill:none;stroke:#000;stroke-miterlimit:10"></rect><rect x="244.97" y="47.46" width="6.22" height="12.18" style="fill:none;stroke:#000;stroke-miterlimit:10"></rect><rect x="256.17" y="47.46" width="6.22" height="12.18" style="fill:none;stroke:#000;stroke-miterlimit:10"></rect><rect x="267.37" y="47.46" width="6.22" height="12.18" style="fill:none;stroke:#000;stroke-miterlimit:10"></rect><rect x="222.57" y="68.05" width="6.22" height="12.18" style="fill:none;stroke:#000;stroke-miterlimit:10"></rect><rect x="233.77" y="68.05" width="6.22" height="12.18" style="fill:none;stroke:#000;stroke-miterlimit:10"></rect><rect x="244.97" y="68.05" width="6.22" height="12.18" style="fill:none;stroke:#000;stroke-miterlimit:10"></rect><rect x="256.17" y="68.05" width="6.22" height="12.18" style="fill:none;stroke:#000;stroke-miterlimit:10"></rect><rect x="267.37" y="68.05" width="6.22" height="12.18" style="fill:none;stroke:#000;stroke-miterlimit:10"></rect><rect x="222.57" y="88.63" width="6.22" height="12.18" style="fill:none;stroke:#000;stroke-miterlimit:10"></rect><rect x="233.77" y="88.63" width="6.22" height="12.18" style="fill:none;stroke:#000;stroke-miterlimit:10"></rect><rect x="244.97" y="88.63" width="6.22" height="12.18" style="fill:none;stroke:#000;stroke-miterlimit:10"></rect><rect x="256.17" y="88.63" width="6.22" height="12.18" style="fill:none;stroke:#000;stroke-miterlimit:10"></rect><rect x="267.37" y="88.63" width="6.22" height="12.18" style="fill:none;stroke:#000;stroke-miterlimit:10"></rect><rect x="222.57" y="109.22" width="6.22" height="12.18" style="fill:none;stroke:#000;stroke-miterlimit:10"></rect><rect x="233.77" y="109.22" width="6.22" height="12.18" style="fill:none;stroke:#000;stroke-miterlimit:10"></rect><rect x="244.97" y="109.22" width="6.22" height="12.18" style="fill:none;stroke:#000;stroke-miterlimit:10"></rect><rect x="256.17" y="109.22" width="6.22" height="12.18" style="fill:none;stroke:#000;stroke-miterlimit:10"></rect><rect x="267.37" y="109.22" width="6.22" height="12.18" style="fill:none;stroke:#000;stroke-miterlimit:10"></rect><rect x="222.57" y="129.8" width="6.22" height="12.18" style="fill:none;stroke:#000;stroke-miterlimit:10"></rect><rect x="233.77" y="129.8" width="6.22" height="12.18" style="fill:none;stroke:#000;stroke-miterlimit:10"></rect><rect x="244.97" y="129.8" width="6.22" height="12.18" style="fill:none;stroke:#000;stroke-miterlimit:10"></rect><rect x="256.17" y="129.8" width="6.22" height="12.18" style="fill:none;stroke:#000;stroke-miterlimit:10"></rect><rect x="267.37" y="129.8" width="6.22" height="12.18" style="fill:none;stroke:#000;stroke-miterlimit:10"></rect><rect x="222.57" y="150.39" width="6.22" height="12.18" style="fill:none;stroke:#000;stroke-miterlimit:10"></rect><rect x="233.77" y="150.39" width="6.22" height="12.18" style="fill:none;stroke:#000;stroke-miterlimit:10"></rect><rect x="244.97" y="150.39" width="6.22" height="12.18" style="fill:none;stroke:#000;stroke-miterlimit:10"></rect><rect x="256.17" y="150.39" width="6.22" height="12.18" style="fill:none;stroke:#000;stroke-miterlimit:10"></rect><rect x="267.37" y="150.39" width="6.22" height="12.18" style="fill:none;stroke:#000;stroke-miterlimit:10"></rect><rect x="184.38" y="150.39" width="6.22" height="12.18" style="fill:none;stroke:#000;stroke-miterlimit:10"></rect><rect x="195.58" y="150.39" width="6.22" height="12.18" style="fill:none;stroke:#000;stroke-miterlimit:10"></rect><rect x="206.78" y="150.39" width="6.22" height="12.18" style="fill:none;stroke:#000;stroke-miterlimit:10"></rect><rect x="184.38" y="170.39" width="6.22" height="12.18" style="fill:none;stroke:#000;stroke-miterlimit:10"></rect><rect x="195.58" y="170.39" width="6.22" height="12.18" style="fill:none;stroke:#000;stroke-miterlimit:10"></rect><rect x="206.78" y="170.39" width="6.22" height="12.18" style="fill:none;stroke:#000;stroke-miterlimit:10"></rect><rect x="184.38" y="190.4" width="6.22" height="12.18" style="fill:none;stroke:#000;stroke-miterlimit:10"></rect><rect x="195.58" y="190.4" width="6.22" height="12.18" style="fill:none;stroke:#000;stroke-miterlimit:10"></rect><rect x="206.78" y="190.4" width="6.22" height="12.18" style="fill:none;stroke:#000;stroke-miterlimit:10"></rect><rect x="184.38" y="210.4" width="6.22" height="12.18" style="fill:none;stroke:#000;stroke-miterlimit:10"></rect><rect x="195.58" y="210.4" width="6.22" height="12.18" style="fill:none;stroke:#000;stroke-miterlimit:10"></rect><rect x="206.78" y="210.4" width="6.22" height="12.18" style="fill:none;stroke:#000;stroke-miterlimit:10"></rect><rect x="184.38" y="230.41" width="6.22" height="12.18" style="fill:none;stroke:#000;stroke-miterlimit:10"></rect><rect x="195.58" y="230.41" width="6.22" height="12.18" style="fill:none;stroke:#000;stroke-miterlimit:10"></rect><rect x="206.78" y="230.41" width="6.22" height="12.18" style="fill:none;stroke:#000;stroke-miterlimit:10"></rect><rect x="184.38" y="250.41" width="6.22" height="12.18" style="fill:none;stroke:#000;stroke-miterlimit:10"></rect><rect x="195.58" y="250.41" width="6.22" height="12.18" style="fill:none;stroke:#000;stroke-miterlimit:10"></rect><rect x="206.78" y="250.41" width="6.22" height="12.18" style="fill:none;stroke:#000;stroke-miterlimit:10"></rect><rect x="184.38" y="270.42" width="6.22" height="12.18" style="fill:none;stroke:#000;stroke-miterlimit:10"></rect><rect x="195.58" y="270.42" width="6.22" height="12.18" style="fill:none;stroke:#000;stroke-miterlimit:10"></rect><rect x="206.78" y="270.42" width="6.22" height="12.18" style="fill:none;stroke:#000;stroke-miterlimit:10"></rect><rect x="184.38" y="290.42" width="6.22" height="12.18" style="fill:none;stroke:#000;stroke-miterlimit:10"></rect><rect x="195.58" y="290.42" width="6.22" height="12.18" style="fill:none;stroke:#000;stroke-miterlimit:10"></rect><rect x="206.78" y="290.42" width="6.22" height="12.18" style="fill:none;stroke:#000;stroke-miterlimit:10"></rect><rect x="184.38" y="310.43" width="6.22" height="12.18" style="fill:none;stroke:#000;stroke-miterlimit:10"></rect><rect x="195.58" y="310.43" width="6.22" height="12.18" style="fill:none;stroke:#000;stroke-miterlimit:10"></rect><rect x="206.78" y="310.43" width="6.22" height="12.18" style="fill:none;stroke:#000;stroke-miterlimit:10"></rect><rect x="184.38" y="330.43" width="6.22" height="12.18" style="fill:none;stroke:#000;stroke-miterlimit:10"></rect><rect x="195.58" y="330.43" width="6.22" height="12.18" style="fill:none;stroke:#000;stroke-miterlimit:10"></rect><rect x="206.78" y="330.43" width="6.22" height="12.18" style="fill:none;stroke:#000;stroke-miterlimit:10"></rect><rect x="184.38" y="350.44" width="6.22" height="12.18" style="fill:none;stroke:#000;stroke-miterlimit:10"></rect><rect x="195.58" y="350.44" width="6.22" height="12.18" style="fill:none;stroke:#000;stroke-miterlimit:10"></rect><rect x="206.78" y="350.44" width="6.22" height="12.18" style="fill:none;stroke:#000;stroke-miterlimit:10"></rect><rect x="284.25" y="232.73" width="6.22" height="12.18" style="fill:none;stroke:#000;stroke-miterlimit:10"></rect><rect x="295.45" y="232.73" width="6.22" height="12.18" style="fill:none;stroke:#000;stroke-miterlimit:10"></rect><rect x="284.25" y="252.73" width="6.22" height="12.18" style="fill:none;stroke:#000;stroke-miterlimit:10"></rect><rect x="295.45" y="252.73" width="6.22" height="12.18" style="fill:none;stroke:#000;stroke-miterlimit:10"></rect><rect x="284.25" y="272.74" width="6.22" height="12.18" style="fill:none;stroke:#000;stroke-miterlimit:10"></rect><rect x="295.45" y="272.74" width="6.22" height="12.18" style="fill:none;stroke:#000;stroke-miterlimit:10"></rect><rect x="284.25" y="292.74" width="6.22" height="12.18" style="fill:none;stroke:#000;stroke-miterlimit:10"></rect><rect x="295.45" y="292.74" width="6.22" height="12.18" style="fill:none;stroke:#000;stroke-miterlimit:10"></rect><rect x="284.25" y="312.75" width="6.22" height="12.18" style="fill:none;stroke:#000;stroke-miterlimit:10"></rect><rect x="295.45" y="312.75" width="6.22" height="12.18" style="fill:none;stroke:#000;stroke-miterlimit:10"></rect><rect x="284.25" y="332.75" width="6.22" height="12.18" style="fill:none;stroke:#000;stroke-miterlimit:10"></rect><rect x="295.45" y="332.75" width="6.22" height="12.18" style="fill:none;stroke:#000;stroke-miterlimit:10"></rect><rect x="284.25" y="352.76" width="6.22" height="12.18" style="fill:none;stroke:#000;stroke-miterlimit:10"></rect><rect x="295.45" y="352.76" width="6.22" height="12.18" style="fill:none;stroke:#000;stroke-miterlimit:10"></rect><rect x="222.57" y="170.97" width="6.22" height="12.18" style="fill:none;stroke:#000;stroke-miterlimit:10"></rect><rect x="233.77" y="170.97" width="6.22" height="12.18" style="fill:none;stroke:#000;stroke-miterlimit:10"></rect><rect x="244.97" y="170.97" width="6.22" height="12.18" style="fill:none;stroke:#000;stroke-miterlimit:10"></rect><rect x="256.17" y="170.97" width="6.22" height="12.18" style="fill:none;stroke:#000;stroke-miterlimit:10"></rect><rect x="267.37" y="170.97" width="6.22" height="12.18" style="fill:none;stroke:#000;stroke-miterlimit:10"></rect><rect x="222.57" y="191.56" width="6.22" height="12.18" style="fill:none;stroke:#000;stroke-miterlimit:10"></rect><rect x="233.77" y="191.56" width="6.22" height="12.18" style="fill:none;stroke:#000;stroke-miterlimit:10"></rect><rect x="244.97" y="191.56" width="6.22" height="12.18" style="fill:none;stroke:#000;stroke-miterlimit:10"></rect><rect x="256.17" y="191.56" width="6.22" height="12.18" style="fill:none;stroke:#000;stroke-miterlimit:10"></rect><rect x="267.37" y="191.56" width="6.22" height="12.18" style="fill:none;stroke:#000;stroke-miterlimit:10"></rect><rect x="222.57" y="212.14" width="6.22" height="12.18" style="fill:none;stroke:#000;stroke-miterlimit:10"></rect><rect x="233.77" y="212.14" width="6.22" height="12.18" style="fill:none;stroke:#000;stroke-miterlimit:10"></rect><rect x="244.97" y="212.14" width="6.22" height="12.18" style="fill:none;stroke:#000;stroke-miterlimit:10"></rect><rect x="256.17" y="212.14" width="6.22" height="12.18" style="fill:none;stroke:#000;stroke-miterlimit:10"></rect><rect x="267.37" y="212.14" width="6.22" height="12.18" style="fill:none;stroke:#000;stroke-miterlimit:10"></rect><rect x="222.57" y="232.73" width="6.22" height="12.18" style="fill:none;stroke:#000;stroke-miterlimit:10"></rect><rect x="233.77" y="232.73" width="6.22" height="12.18" style="fill:none;stroke:#000;stroke-miterlimit:10"></rect><rect x="244.97" y="232.73" width="6.22" height="12.18" style="fill:none;stroke:#000;stroke-miterlimit:10"></rect><rect x="256.17" y="232.73" width="6.22" height="12.18" style="fill:none;stroke:#000;stroke-miterlimit:10"></rect><rect x="267.37" y="232.73" width="6.22" height="12.18" style="fill:none;stroke:#000;stroke-miterlimit:10"></rect><rect x="222.57" y="253.31" width="6.22" height="12.18" style="fill:none;stroke:#000;stroke-miterlimit:10"></rect><rect x="233.77" y="253.31" width="6.22" height="12.18" style="fill:none;stroke:#000;stroke-miterlimit:10"></rect><rect x="244.97" y="253.31" width="6.22" height="12.18" style="fill:none;stroke:#000;stroke-miterlimit:10"></rect><rect x="256.17" y="253.31" width="6.22" height="12.18" style="fill:none;stroke:#000;stroke-miterlimit:10"></rect><rect x="267.37" y="253.31" width="6.22" height="12.18" style="fill:none;stroke:#000;stroke-miterlimit:10"></rect><rect x="222.57" y="273.9" width="6.22" height="12.18" style="fill:none;stroke:#000;stroke-miterlimit:10"></rect><rect x="233.77" y="273.9" width="6.22" height="12.18" style="fill:none;stroke:#000;stroke-miterlimit:10"></rect><rect x="244.97" y="273.9" width="6.22" height="12.18" style="fill:none;stroke:#000;stroke-miterlimit:10"></rect><rect x="256.17" y="273.9" width="6.22" height="12.18" style="fill:none;stroke:#000;stroke-miterlimit:10"></rect><rect x="267.37" y="273.9" width="6.22" height="12.18" style="fill:none;stroke:#000;stroke-miterlimit:10"></rect><rect x="222.57" y="294.48" width="6.22" height="12.18" style="fill:none;stroke:#000;stroke-miterlimit:10"></rect><rect x="233.77" y="294.48" width="6.22" height="12.18" style="fill:none;stroke:#000;stroke-miterlimit:10"></rect><rect x="244.97" y="294.48" width="6.22" height="12.18" style="fill:none;stroke:#000;stroke-miterlimit:10"></rect><rect x="256.17" y="294.48" width="6.22" height="12.18" style="fill:none;stroke:#000;stroke-miterlimit:10"></rect><rect x="267.37" y="294.48" width="6.22" height="12.18" style="fill:none;stroke:#000;stroke-miterlimit:10"></rect><rect x="222.57" y="315.07" width="6.22" height="12.18" style="fill:none;stroke:#000;stroke-miterlimit:10"></rect><rect x="233.77" y="315.07" width="6.22" height="12.18" style="fill:none;stroke:#000;stroke-miterlimit:10"></rect><rect x="244.97" y="315.07" width="6.22" height="12.18" style="fill:none;stroke:#000;stroke-miterlimit:10"></rect><rect x="256.17" y="315.07" width="6.22" height="12.18" style="fill:none;stroke:#000;stroke-miterlimit:10"></rect><rect x="267.37" y="315.07" width="6.22" height="12.18" style="fill:none;stroke:#000;stroke-miterlimit:10"></rect><rect x="222.57" y="335.65" width="6.22" height="12.18" style="fill:none;stroke:#000;stroke-miterlimit:10"></rect><rect x="233.77" y="335.65" width="6.22" height="12.18" style="fill:none;stroke:#000;stroke-miterlimit:10"></rect><rect x="244.97" y="335.65" width="6.22" height="12.18" style="fill:none;stroke:#000;stroke-miterlimit:10"></rect><rect x="256.17" y="335.65" width="6.22" height="12.18" style="fill:none;stroke:#000;stroke-miterlimit:10"></rect><rect x="267.37" y="335.65" width="6.22" height="12.18" style="fill:none;stroke:#000;stroke-miterlimit:10"></rect><rect x="222.57" y="356.81" width="6.22" height="12.18" style="fill:none;stroke:#000;stroke-miterlimit:10"></rect><rect x="233.77" y="356.81" width="6.22" height="12.18" style="fill:none;stroke:#000;stroke-miterlimit:10"></rect><rect x="244.97" y="356.81" width="6.22" height="12.18" style="fill:none;stroke:#000;stroke-miterlimit:10"></rect><rect x="256.17" y="356.81" width="6.22" height="12.18" style="fill:none;stroke:#000;stroke-miterlimit:10"></rect><rect x="267.37" y="356.81" width="6.22" height="12.18" style="fill:none;stroke:#000;stroke-miterlimit:10"></rect><line x1="217.88" y1="141.4" x2="217.88" y2="389.58" style="fill:none;stroke:#000;stroke-miterlimit:10"></line><line x1="313.02" y1="152.99" x2="313.02" y2="386.1" style="fill:none;stroke:#000;stroke-miterlimit:10"></line><line x1="325.2" y1="152.99" x2="325.2" y2="386.1" style="fill:none;stroke:#000;stroke-miterlimit:10"></line><line x1="337.38" y1="152.99" x2="337.38" y2="386.1" style="fill:none;stroke:#000;stroke-miterlimit:10"></line><line x1="349.55" y1="152.99" x2="349.55" y2="386.1" style="fill:none;stroke:#000;stroke-miterlimit:10"></line><line x1="361.73" y1="176.19" x2="361.73" y2="386.1" style="fill:none;stroke:#000;stroke-miterlimit:10"></line><line x1="373.91" y1="176.19" x2="373.91" y2="386.1" style="fill:none;stroke:#000;stroke-miterlimit:10"></line><line x1="386.09" y1="176.19" x2="386.09" y2="386.1" style="fill:none;stroke:#000;stroke-miterlimit:10"></line><line x1="60.79" y1="97.33" x2="136.75" y2="97.33" style="fill:none;stroke:#000;stroke-miterlimit:10"></line><line x1="60.79" y1="112.4" x2="136.75" y2="112.4" style="fill:none;stroke:#000;stroke-miterlimit:10"></line><line x1="60.79" y1="127.48" x2="136.75" y2="127.48" style="fill:none;stroke:#000;stroke-miterlimit:10"></line><line x1="60.79" y1="142.56" x2="136.75" y2="142.56" style="fill:none;stroke:#000;stroke-miterlimit:10"></line><line x1="60.79" y1="157.63" x2="136.75" y2="157.63" style="fill:none;stroke:#000;stroke-miterlimit:10"></line><line x1="60.79" y1="172.71" x2="136.75" y2="172.71" style="fill:none;stroke:#000;stroke-miterlimit:10"></line><line x1="60.79" y1="187.79" x2="136.75" y2="187.79" style="fill:none;stroke:#000;stroke-miterlimit:10"></line><line x1="60.79" y1="202.86" x2="136.75" y2="202.86" style="fill:none;stroke:#000;stroke-miterlimit:10"></line><line x1="60.79" y1="217.94" x2="136.75" y2="217.94" style="fill:none;stroke:#000;stroke-miterlimit:10"></line><line x1="60.79" y1="233.02" x2="136.75" y2="233.02" style="fill:none;stroke:#000;stroke-miterlimit:10"></line><line x1="60.79" y1="248.09" x2="136.75" y2="248.09" style="fill:none;stroke:#000;stroke-miterlimit:10"></line><line x1="60.79" y1="263.17" x2="136.75" y2="263.17" style="fill:none;stroke:#000;stroke-miterlimit:10"></line><line x1="60.79" y1="278.24" x2="136.75" y2="278.24" style="fill:none;stroke:#000;stroke-miterlimit:10"></line><line x1="60.79" y1="293.32" x2="136.75" y2="293.32" style="fill:none;stroke:#000;stroke-miterlimit:10"></line><line x1="60.79" y1="308.4" x2="136.75" y2="308.4" style="fill:none;stroke:#000;stroke-miterlimit:10"></line><line x1="60.79" y1="323.47" x2="136.75" y2="323.47" style="fill:none;stroke:#000;stroke-miterlimit:10"></line><line x1="60.79" y1="338.55" x2="136.75" y2="338.55" style="fill:none;stroke:#000;stroke-miterlimit:10"></line><line x1="60.79" y1="353.63" x2="136.75" y2="353.63" style="fill:none;stroke:#000;stroke-miterlimit:10"></line><line x1="60.79" y1="368.7" x2="136.75" y2="368.7" style="fill:none;stroke:#000;stroke-miterlimit:10"></line><line x1="60.79" y1="383.78" x2="136.75" y2="383.78" style="fill:none;stroke:#000;stroke-miterlimit:10"></line><line x1="60.79" y1="398.85" x2="136.75" y2="398.85" style="fill:none;stroke:#000;stroke-miterlimit:10"></line><line x1="70.64" y1="74.71" x2="70.64" y2="402.33" style="fill:none;stroke:#000;stroke-miterlimit:10"></line><polyline points="592.51 139.08 609.33 139.08 609.33 147.2 592.51 147.2" style="fill:none;stroke:#000;stroke-miterlimit:10"></polyline><polyline points="690.51 230.12 671.38 230.12 671.38 238.23 690.51 238.23" style="fill:none;stroke:#000;stroke-miterlimit:10"></polyline><polyline points="690.51 249.25 671.38 249.25 671.38 257.37 690.51 257.37" style="fill:none;stroke:#000;stroke-miterlimit:10"></polyline><polyline points="690.51 268.39 671.38 268.39 671.38 276.5 690.51 276.5" style="fill:none;stroke:#000;stroke-miterlimit:10"></polyline><polyline points="690.51 287.52 671.38 287.52 671.38 295.64 690.51 295.64" style="fill:none;stroke:#000;stroke-miterlimit:10"></polyline><polyline points="690.51 306.66 671.38 306.66 671.38 314.77 690.51 314.77" style="fill:none;stroke:#000;stroke-miterlimit:10"></polyline><polyline points="690.51 325.79 671.38 325.79 671.38 333.91 690.51 333.91" style="fill:none;stroke:#000;stroke-miterlimit:10"></polyline><polyline points="690.51 344.93 671.38 344.93 671.38 353.05 690.51 353.05" style="fill:none;stroke:#000;stroke-miterlimit:10"></polyline><polyline points="690.51 364.06 671.38 364.06 671.38 372.18 690.51 372.18" style="fill:none;stroke:#000;stroke-miterlimit:10"></polyline><polyline points="592.51 161.11 609.33 161.11 609.33 169.23 592.51 169.23" style="fill:none;stroke:#000;stroke-miterlimit:10"></polyline><polyline points="592.51 183.15 609.33 183.15 609.33 191.27 592.51 191.27" style="fill:none;stroke:#000;stroke-miterlimit:10"></polyline><polyline points="592.51 205.18 609.33 205.18 609.33 213.3 592.51 213.3" style="fill:none;stroke:#000;stroke-miterlimit:10"></polyline><polyline points="592.51 227.22 609.33 227.22 609.33 235.34 592.51 235.34" style="fill:none;stroke:#000;stroke-miterlimit:10"></polyline><polyline points="592.51 249.25 609.33 249.25 609.33 257.37 592.51 257.37" style="fill:none;stroke:#000;stroke-miterlimit:10"></polyline><polyline points="592.51 271.29 609.33 271.29 609.33 279.4 592.51 279.4" style="fill:none;stroke:#000;stroke-miterlimit:10"></polyline><polyline points="592.51 293.32 609.33 293.32 609.33 301.44 592.51 301.44" style="fill:none;stroke:#000;stroke-miterlimit:10"></polyline><polyline points="592.51 315.36 609.33 315.36 609.33 323.47 592.51 323.47" style="fill:none;stroke:#000;stroke-miterlimit:10"></polyline><polyline points="592.51 337.39 609.33 337.39 609.33 345.51 592.51 345.51" style="fill:none;stroke:#000;stroke-miterlimit:10"></polyline><rect x="492.78" y="191.85" width="73.06" height="6.96" style="fill:none;stroke:#000;stroke-miterlimit:10"></rect><rect x="492.78" y="204.02" width="73.06" height="6.96" style="fill:none;stroke:#000;stroke-miterlimit:10"></rect><rect x="492.78" y="216.2" width="73.06" height="6.96" style="fill:none;stroke:#000;stroke-miterlimit:10"></rect><rect x="492.78" y="228.38" width="73.06" height="6.96" style="fill:none;stroke:#000;stroke-miterlimit:10"></rect><rect x="492.78" y="240.55" width="73.06" height="6.96" style="fill:none;stroke:#000;stroke-miterlimit:10"></rect><rect x="492.78" y="252.73" width="73.06" height="6.96" style="fill:none;stroke:#000;stroke-miterlimit:10"></rect><rect x="492.78" y="264.91" width="73.06" height="6.96" style="fill:none;stroke:#000;stroke-miterlimit:10"></rect><rect x="492.78" y="277.08" width="73.06" height="6.96" style="fill:none;stroke:#000;stroke-miterlimit:10"></rect><rect x="492.78" y="289.26" width="73.06" height="6.96" style="fill:none;stroke:#000;stroke-miterlimit:10"></rect><rect x="492.78" y="301.44" width="73.06" height="6.96" style="fill:none;stroke:#000;stroke-miterlimit:10"></rect><rect x="492.78" y="313.62" width="73.06" height="6.96" style="fill:none;stroke:#000;stroke-miterlimit:10"></rect><rect x="492.78" y="325.79" width="73.06" height="6.96" style="fill:none;stroke:#000;stroke-miterlimit:10"></rect><rect x="492.78" y="337.97" width="73.06" height="6.96" style="fill:none;stroke:#000;stroke-miterlimit:10"></rect><rect x="492.78" y="350.15" width="73.06" height="6.96" style="fill:none;stroke:#000;stroke-miterlimit:10"></rect><rect x="492.78" y="362.32" width="73.06" height="6.96" style="fill:none;stroke:#000;stroke-miterlimit:10"></rect><rect x="492.78" y="374.5" width="73.06" height="6.96" style="fill:none;stroke:#000;stroke-miterlimit:10"></rect><rect x="492.78" y="386.68" width="73.06" height="6.96" style="fill:none;stroke:#000;stroke-miterlimit:10"></rect><line x1="619.77" y1="119.94" x2="619.77" y2="389" style="fill:none;stroke:#000;stroke-miterlimit:10"></line><line x1="634.84" y1="68.92" x2="634.84" y2="389" style="fill:none;stroke:#000;stroke-miterlimit:10"></line><rect x="424.94" y="327.53" width="36.53" height="19.14" style="fill:none;stroke:#000;stroke-miterlimit:10"></rect><rect x="433.63" y="293.9" width="19.14" height="33.63" style="fill:none;stroke:#000;stroke-miterlimit:10"></rect><line x1="279.78" y1="222.98" x2="279.78" y2="389.12" style="fill:none;stroke:#000;stroke-miterlimit:10"></line><line x1="489.61" y1="204.78" x2="400.9" y2="204.78" style="fill:none;stroke:#000;stroke-miterlimit:10"></line><line x1="489.61" y1="214.69" x2="400.9" y2="214.69" style="fill:none;stroke:#000;stroke-miterlimit:10"></line><rect x="404.86" y="222.12" width="13.53" height="9.91" style="fill:none;stroke:#000;stroke-miterlimit:10"></rect><rect x="421.55" y="222.12" width="13.53" height="9.91" style="fill:none;stroke:#000;stroke-miterlimit:10"></rect><rect x="438.24" y="222.12" width="13.53" height="9.91" style="fill:none;stroke:#000;stroke-miterlimit:10"></rect><rect x="454.93" y="222.12" width="13.53" height="9.91" style="fill:none;stroke:#000;stroke-miterlimit:10"></rect><rect x="471.62" y="222.12" width="13.53" height="9.91" style="fill:none;stroke:#000;stroke-miterlimit:10"></rect><rect x="404.86" y="237.48" width="13.53" height="9.91" style="fill:none;stroke:#000;stroke-miterlimit:10"></rect><rect x="421.55" y="237.48" width="13.53" height="9.91" style="fill:none;stroke:#000;stroke-miterlimit:10"></rect><rect x="438.24" y="237.48" width="13.53" height="9.91" style="fill:none;stroke:#000;stroke-miterlimit:10"></rect><rect x="454.93" y="237.48" width="13.53" height="9.91" style="fill:none;stroke:#000;stroke-miterlimit:10"></rect><rect x="471.62" y="237.48" width="13.53" height="9.91" style="fill:none;stroke:#000;stroke-miterlimit:10"></rect><rect x="404.86" y="252.84" width="13.53" height="9.91" style="fill:none;stroke:#000;stroke-miterlimit:10"></rect><rect x="421.55" y="252.84" width="13.53" height="9.91" style="fill:none;stroke:#000;stroke-miterlimit:10"></rect><rect x="438.24" y="252.84" width="13.53" height="9.91" style="fill:none;stroke:#000;stroke-miterlimit:10"></rect><rect x="454.93" y="252.84" width="13.53" height="9.91" style="fill:none;stroke:#000;stroke-miterlimit:10"></rect><rect x="471.62" y="252.84" width="13.53" height="9.91" style="fill:none;stroke:#000;stroke-miterlimit:10"></rect><rect x="404.86" y="280.6" width="13.53" height="9.91" style="fill:none;stroke:#000;stroke-miterlimit:10"></rect><rect x="421.55" y="280.6" width="13.53" height="9.91" style="fill:none;stroke:#000;stroke-miterlimit:10"></rect><rect x="438.24" y="280.6" width="13.53" height="9.91" style="fill:none;stroke:#000;stroke-miterlimit:10"></rect><rect x="454.93" y="280.6" width="13.53" height="9.91" style="fill:none;stroke:#000;stroke-miterlimit:10"></rect><rect x="471.62" y="280.6" width="13.53" height="9.91" style="fill:none;stroke:#000;stroke-miterlimit:10"></rect></g></g><g id="freepik--Train--inject-3"><rect x="267.47" y="254.68" width="5.94" height="26.47" style="fill:#263238;stroke:#263238;stroke-miterlimit:10"></rect><rect x="486.64" y="254.68" width="5.94" height="26.47" style="fill:#263238;stroke:#263238;stroke-miterlimit:10"></rect><polygon points="41.05 282.31 38.98 286.86 69.34 286.86 69.34 285.85 52.4 285.68 41.05 282.31" style="fill:#263238;stroke:#263238;stroke-miterlimit:10"></polygon><path d="M267.47,248.25v37.6H55.33a26,26,0,0,1-8.82-1.55L31.89,279a5.2,5.2,0,0,1-.12-9.25l22.39-12.68a59.38,59.38,0,0,1,27.3-7Z" style="fill:#fff;stroke:#263238;stroke-miterlimit:10"></path><path d="M29.82,277.12A5,5,0,0,0,31.89,279l14.62,5.32a26,26,0,0,0,8.82,1.55H267.47v-8.73Z" style="fill:#71717A;stroke:#263238;stroke-miterlimit:10"></path><path d="M100.26,281.15H72.8a4.69,4.69,0,0,0-4.7,4.7H105A4.7,4.7,0,0,0,100.26,281.15Z" style="fill:#263238;stroke:#263238;stroke-miterlimit:10"></path><circle cx="75.52" cy="285.85" r="4.7" style="fill:#263238;stroke:#263238;stroke-miterlimit:10"></circle><path d="M105,285.85a4.7,4.7,0,1,0-4.7,4.7A4.7,4.7,0,0,0,105,285.85Z" style="fill:#263238;stroke:#263238;stroke-miterlimit:10"></path><path d="M247.93,281.15H220.47a4.7,4.7,0,0,0-4.7,4.7h36.86A4.69,4.69,0,0,0,247.93,281.15Z" style="fill:#263238;stroke:#263238;stroke-miterlimit:10"></path><circle cx="223.2" cy="285.85" r="4.7" style="fill:#263238;stroke:#263238;stroke-miterlimit:10"></circle><circle cx="247.93" cy="285.85" r="4.7" style="fill:#263238;stroke:#263238;stroke-miterlimit:10"></circle><polygon points="267.47 272 267.47 258.14 90.36 258.14 66.12 272 267.47 272" style="fill:#71717A;stroke:#263238;stroke-miterlimit:10"></polygon><rect x="120.79" y="260.37" width="133.82" height="9.4" style="fill:#263238;stroke:#263238;stroke-miterlimit:10"></rect><rect x="153.19" y="261.61" width="12.24" height="6.93" style="fill:#fff;stroke:#263238;stroke-miterlimit:10"></rect><rect x="172.86" y="261.61" width="12.24" height="6.93" style="fill:#fff;stroke:#263238;stroke-miterlimit:10"></rect><rect x="192.53" y="261.61" width="12.24" height="6.93" style="fill:#fff;stroke:#263238;stroke-miterlimit:10"></rect><rect x="212.2" y="261.61" width="12.24" height="6.93" style="fill:#fff;stroke:#263238;stroke-miterlimit:10"></rect><rect x="231.87" y="261.61" width="12.24" height="6.93" style="fill:#fff;stroke:#263238;stroke-miterlimit:10"></rect><path d="M66.12,259.38,80.22,253H63.83a58.57,58.57,0,0,0-9.67,4.1L44.7,262.4l12.27-2Z" style="fill:#263238;stroke:#263238;stroke-miterlimit:10"></path><path d="M63.83,253H267.47v-4.7l-186,1.83A59.42,59.42,0,0,0,63.83,253Z" style="fill:#ccc;stroke:#263238;stroke-miterlimit:10"></path><path d="M117.65,280.09h-3.78a3.64,3.64,0,0,1-3.63-3.63v-17a3.64,3.64,0,0,1,3.63-3.64h3.78a3.64,3.64,0,0,1,3.63,3.64v17A3.64,3.64,0,0,1,117.65,280.09Zm-3.78-23.56a2.89,2.89,0,0,0-2.89,2.89v17a2.9,2.9,0,0,0,2.89,2.89h3.78a2.9,2.9,0,0,0,2.89-2.89v-17a2.89,2.89,0,0,0-2.89-2.89Z" style="fill:#fff;stroke:#263238;stroke-miterlimit:10"></path><rect x="113.24" y="261.61" width="5.04" height="8.16" style="fill:#fff;stroke:#263238;stroke-miterlimit:10"></rect><path d="M261.65,280.09h-3.78a3.64,3.64,0,0,1-3.63-3.63v-17a3.64,3.64,0,0,1,3.63-3.64h3.78a3.63,3.63,0,0,1,3.63,3.64v17A3.63,3.63,0,0,1,261.65,280.09Zm-3.78-23.56a2.89,2.89,0,0,0-2.89,2.89v17a2.9,2.9,0,0,0,2.89,2.89h3.78a2.89,2.89,0,0,0,2.89-2.89v-17a2.89,2.89,0,0,0-2.89-2.89Z" style="fill:#fff;stroke:#263238;stroke-miterlimit:10"></path><rect x="257.24" y="261.61" width="5.04" height="8.16" style="fill:#fff;stroke:#263238;stroke-miterlimit:10"></rect><rect x="90.52" y="261.61" width="5.04" height="8.16" style="fill:#fff;stroke:#263238;stroke-miterlimit:10"></rect><polygon points="718.99 282.31 721.06 286.86 690.71 286.86 690.71 285.85 707.64 285.68 718.99 282.31" style="fill:#263238;stroke:#263238;stroke-miterlimit:10"></polygon><path d="M492.57,248.25v37.6H704.71a26.06,26.06,0,0,0,8.83-1.55L728.16,279a5.21,5.21,0,0,0,.12-9.25l-22.39-12.68a59.38,59.38,0,0,0-27.3-7Z" style="fill:#fff;stroke:#263238;stroke-miterlimit:10"></path><path d="M492.57,277.12v8.73H704.72a26,26,0,0,0,8.82-1.55L728.16,279a5.08,5.08,0,0,0,2.07-1.86Z" style="fill:#71717A;stroke:#263238;stroke-miterlimit:10"></path><path d="M659.79,281.15h27.46a4.7,4.7,0,0,1,4.7,4.7H655.09A4.7,4.7,0,0,1,659.79,281.15Z" style="fill:#263238;stroke:#263238;stroke-miterlimit:10"></path><circle cx="684.53" cy="285.85" r="4.7" style="fill:#263238;stroke:#263238;stroke-miterlimit:10"></circle><circle cx="659.79" cy="285.85" r="4.7" style="fill:#263238;stroke:#263238;stroke-miterlimit:10"></circle><path d="M512.12,281.15h27.45a4.69,4.69,0,0,1,4.7,4.7H507.42A4.69,4.69,0,0,1,512.12,281.15Z" style="fill:#263238;stroke:#263238;stroke-miterlimit:10"></path><circle cx="536.85" cy="285.85" r="4.7" style="fill:#263238;stroke:#263238;stroke-miterlimit:10"></circle><circle cx="512.12" cy="285.85" r="4.7" style="fill:#263238;stroke:#263238;stroke-miterlimit:10"></circle><polygon points="492.57 272 492.57 258.14 669.69 258.14 693.93 272 492.57 272" style="fill:#71717A;stroke:#263238;stroke-miterlimit:10"></polygon><rect x="505.44" y="260.37" width="133.82" height="9.4" transform="translate(1144.7 530.14) rotate(180)" style="fill:#263238;stroke:#263238;stroke-miterlimit:10"></rect><rect x="594.61" y="261.61" width="12.24" height="6.93" transform="translate(1201.47 530.14) rotate(180)" style="fill:#fff;stroke:#263238;stroke-miterlimit:10"></rect><rect x="574.94" y="261.61" width="12.24" height="6.93" transform="translate(1162.13 530.14) rotate(180)" style="fill:#fff;stroke:#263238;stroke-miterlimit:10"></rect><rect x="555.27" y="261.61" width="12.24" height="6.93" transform="translate(1122.79 530.14) rotate(180)" style="fill:#fff;stroke:#263238;stroke-miterlimit:10"></rect><rect x="535.6" y="261.61" width="12.24" height="6.93" transform="translate(1083.45 530.14) rotate(180)" style="fill:#fff;stroke:#263238;stroke-miterlimit:10"></rect><rect x="515.93" y="261.61" width="12.24" height="6.93" transform="translate(1044.11 530.14) rotate(180)" style="fill:#fff;stroke:#263238;stroke-miterlimit:10"></rect><path d="M693.93,259.38,679.83,253h16.39a58.94,58.94,0,0,1,9.67,4.1l9.45,5.35-12.26-2Z" style="fill:#263238;stroke:#263238;stroke-miterlimit:10"></path><path d="M696.22,253H492.57v-4.7l186,1.83A59.42,59.42,0,0,1,696.22,253Z" style="fill:#ccc;stroke:#263238;stroke-miterlimit:10"></path><path d="M646.18,280.09H642.4a3.64,3.64,0,0,1-3.63-3.63v-17a3.64,3.64,0,0,1,3.63-3.64h3.78a3.64,3.64,0,0,1,3.63,3.64v17A3.64,3.64,0,0,1,646.18,280.09Zm-3.78-23.56a2.89,2.89,0,0,0-2.89,2.89v17a2.9,2.9,0,0,0,2.89,2.89h3.78a2.9,2.9,0,0,0,2.89-2.89v-17a2.89,2.89,0,0,0-2.89-2.89Z" style="fill:#fff;stroke:#263238;stroke-miterlimit:10"></path><rect x="641.77" y="261.61" width="5.04" height="8.16" transform="translate(1288.58 531.38) rotate(180)" style="fill:#fff;stroke:#263238;stroke-miterlimit:10"></rect><path d="M502.17,280.09H498.4a3.64,3.64,0,0,1-3.64-3.63v-17a3.64,3.64,0,0,1,3.64-3.64h3.77a3.64,3.64,0,0,1,3.64,3.64v17A3.64,3.64,0,0,1,502.17,280.09Zm-3.77-23.56a2.89,2.89,0,0,0-2.9,2.89v17a2.9,2.9,0,0,0,2.9,2.89h3.77a2.9,2.9,0,0,0,2.9-2.89v-17a2.89,2.89,0,0,0-2.9-2.89Z" style="fill:#fff;stroke:#263238;stroke-miterlimit:10"></path><rect x="497.77" y="261.61" width="5.04" height="8.16" transform="translate(1000.57 531.38) rotate(180)" style="fill:#fff;stroke:#263238;stroke-miterlimit:10"></rect><rect x="664.49" y="261.61" width="5.04" height="8.16" transform="translate(1334.02 531.38) rotate(180)" style="fill:#fff;stroke:#263238;stroke-miterlimit:10"></rect><rect x="273.41" y="248.25" width="213.23" height="37.6" style="fill:#fff;stroke:#263238;stroke-miterlimit:10"></rect><rect x="273.41" y="277.12" width="213.23" height="8.73" style="fill:#71717A;stroke:#263238;stroke-miterlimit:10"></rect><rect x="273.41" y="258.15" width="213.23" height="13.85" style="fill:#71717A;stroke:#263238;stroke-miterlimit:10"></rect><rect x="287.2" y="260.37" width="187.74" height="9.4" style="fill:#263238;stroke:#263238;stroke-miterlimit:10"></rect><rect x="299.69" y="261.61" width="12.24" height="6.93" style="fill:#fff;stroke:#263238;stroke-miterlimit:10"></rect><rect x="319.37" y="261.61" width="12.24" height="6.93" style="fill:#fff;stroke:#263238;stroke-miterlimit:10"></rect><rect x="339.04" y="261.61" width="12.24" height="6.93" style="fill:#fff;stroke:#263238;stroke-miterlimit:10"></rect><rect x="358.71" y="261.61" width="12.24" height="6.93" style="fill:#fff;stroke:#263238;stroke-miterlimit:10"></rect><rect x="378.38" y="261.61" width="12.24" height="6.93" style="fill:#fff;stroke:#263238;stroke-miterlimit:10"></rect><rect x="397.71" y="261.61" width="12.24" height="6.93" style="fill:#fff;stroke:#263238;stroke-miterlimit:10"></rect><rect x="417.05" y="261.61" width="12.24" height="6.93" style="fill:#fff;stroke:#263238;stroke-miterlimit:10"></rect><rect x="436.38" y="261.61" width="12.24" height="6.93" style="fill:#fff;stroke:#263238;stroke-miterlimit:10"></rect><rect x="455.72" y="261.61" width="12.24" height="6.93" style="fill:#fff;stroke:#263238;stroke-miterlimit:10"></rect><path d="M283.94,280.09h-3.78a3.63,3.63,0,0,1-3.63-3.63v-17a3.63,3.63,0,0,1,3.63-3.64h3.78a3.64,3.64,0,0,1,3.63,3.64v17A3.64,3.64,0,0,1,283.94,280.09Zm-3.78-23.56a2.89,2.89,0,0,0-2.89,2.89v17a2.89,2.89,0,0,0,2.89,2.89h3.78a2.9,2.9,0,0,0,2.89-2.89v-17a2.89,2.89,0,0,0-2.89-2.89Z" style="fill:#fff;stroke:#263238;stroke-miterlimit:10"></path><rect x="279.53" y="261.61" width="5.04" height="8.16" style="fill:#fff;stroke:#263238;stroke-miterlimit:10"></rect><path d="M482,280.09H478.2a3.64,3.64,0,0,1-3.63-3.63v-17a3.64,3.64,0,0,1,3.63-3.64H482a3.63,3.63,0,0,1,3.63,3.64v17A3.63,3.63,0,0,1,482,280.09Zm-3.78-23.56a2.89,2.89,0,0,0-2.89,2.89v17a2.9,2.9,0,0,0,2.89,2.89H482a2.89,2.89,0,0,0,2.89-2.89v-17a2.89,2.89,0,0,0-2.89-2.89Z" style="fill:#fff;stroke:#263238;stroke-miterlimit:10"></path><rect x="477.57" y="261.61" width="5.04" height="8.16" style="fill:#fff;stroke:#263238;stroke-miterlimit:10"></rect><path d="M320.29,281.15H292.83a4.69,4.69,0,0,0-4.7,4.7H325A4.7,4.7,0,0,0,320.29,281.15Z" style="fill:#263238;stroke:#263238;stroke-miterlimit:10"></path><circle cx="295.55" cy="285.85" r="4.7" style="fill:#263238;stroke:#263238;stroke-miterlimit:10"></circle><circle cx="320.29" cy="285.85" r="4.7" style="fill:#263238;stroke:#263238;stroke-miterlimit:10"></circle><path d="M468.45,281.15H441a4.69,4.69,0,0,0-4.7,4.7h36.85A4.69,4.69,0,0,0,468.45,281.15Z" style="fill:#263238;stroke:#263238;stroke-miterlimit:10"></path><circle cx="443.72" cy="285.85" r="4.7" style="fill:#263238;stroke:#263238;stroke-miterlimit:10"></circle><circle cx="468.45" cy="285.85" r="4.7" style="fill:#263238;stroke:#263238;stroke-miterlimit:10"></circle><rect x="273.41" y="248.25" width="213.23" height="4.7" style="fill:#ccc;stroke:#263238;stroke-miterlimit:10"></rect></g><g id="freepik--Bridge--inject-3"><path d="M62.58,409.43,67.41,397a105.87,105.87,0,0,1,197.35,0l4.83,12.44V301.79h-207Zm40.22-65.12a112.14,112.14,0,0,0-10.1,7.95V306.79h14.67v34.52C105.83,342.28,104.3,343.27,102.8,344.31Zm24.25-12.75a109.54,109.54,0,0,0-14.68,6.8V306.79h14.68Zm5-24.77h14.67v19.39a108,108,0,0,0-14.67,3.63Zm19.67,18.62V306.79h14.67v17.69h-.3A112.35,112.35,0,0,0,151.72,325.41Zm73.7,16.28a110.21,110.21,0,0,0-14.68-7.85v-27h14.68Zm-19.68-9.9a109.92,109.92,0,0,0-14.67-4.49V306.79h14.67Zm-19.67-5.51a113.5,113.5,0,0,0-14.68-1.67V306.79h14.68Zm44.35,18.79V306.79h14.67v50.78A111.39,111.39,0,0,0,230.42,345.07Zm34.17,39.39A110.5,110.5,0,0,0,250.09,363V306.79h14.5Zm-197-77.67H87.7V357a110.29,110.29,0,0,0-20.12,27.51Z" style="fill:#263238"></path><path d="M.25,301.79V339.1a105.5,105.5,0,0,1,16.29,9.32A105.7,105.7,0,0,1,54.79,397l4.83,12.44V301.79Zm15.2,39.9A110.21,110.21,0,0,0,.77,333.84v-27H15.45Zm19.67,15.88a111.39,111.39,0,0,0-14.67-12.5V306.79H35.12Zm19.5,26.89A110.5,110.5,0,0,0,40.12,363V306.79h14.5Z" style="fill:#263238"></path><path d="M273.05,409.43,277.88,397a105.87,105.87,0,0,1,197.35,0l4.83,12.44V301.79h-207Zm40.22-65.12a113.71,113.71,0,0,0-10.11,7.95V306.79h14.68v34.52C316.3,342.28,314.77,343.27,313.27,344.31Zm24.24-12.75a110,110,0,0,0-14.67,6.8V306.79h14.67Zm5-24.77h14.68v19.39a108.51,108.51,0,0,0-14.68,3.63Zm19.68,18.62V306.79h14.67v17.69h-.31A112.32,112.32,0,0,0,362.19,325.41Zm73.7,16.28a110.21,110.21,0,0,0-14.68-7.85v-27h14.68Zm-19.68-9.9a110.37,110.37,0,0,0-14.67-4.49V306.79h14.67Zm-19.67-5.51a113.9,113.9,0,0,0-14.68-1.67V306.79h14.68Zm44.35,18.79V306.79h14.67v50.78A112,112,0,0,0,440.89,345.07Zm34.17,39.39A110.5,110.5,0,0,0,460.56,363V306.79h14.5Zm-197-77.67h20.11V357a110.5,110.5,0,0,0-20.11,27.51Z" style="fill:#263238"></path><path d="M749.56,333.72c-3.2,1.4-6.34,2.93-9.41,4.64V306.79h9.41v-5h-266V409.43L488.35,397a105.86,105.86,0,0,1,197.34,0l4.67,12v.43l.08-.22.08.22V409l4.67-12a106,106,0,0,1,54.37-57.81ZM508.63,357a110.5,110.5,0,0,0-20.11,27.51V306.79h20.11Zm19.68-15.64c-1.54,1-3.07,2-4.58,3a115,115,0,0,0-10.1,7.95V306.79h14.68ZM548,331.56a109.42,109.42,0,0,0-14.67,6.8V306.79H548Zm19.68-5.38A108.51,108.51,0,0,0,553,329.81v-23h14.68Zm19.67-1.7H587a112.2,112.2,0,0,0-14.36.94V306.79h14.67Zm19.68,1.8a113.9,113.9,0,0,0-14.68-1.67V306.79H607Zm19.67,5.51A110.37,110.37,0,0,0,612,327.3V306.79h14.67Zm19.68,9.9a110.21,110.21,0,0,0-14.68-7.85v-27h14.68ZM666,357.57a112,112,0,0,0-14.67-12.5V306.79H666Zm19.49,26.89A110.45,110.45,0,0,0,671,363V306.79h14.49Zm30-27.51a110.5,110.5,0,0,0-20.11,27.51V306.79h20.11Zm19.68-15.64c-1.55,1-3.08,2-4.58,3a115,115,0,0,0-10.1,7.95V306.79h14.68Z" style="fill:#263238"></path><polygon points="76.43 343.66 50.81 343.66 45.32 307.79 81.92 307.79 76.43 343.66" style="fill:#fff;stroke:#263238;stroke-miterlimit:10"></polygon><polygon points="47.77 323.81 79.47 323.81 81.92 307.79 45.32 307.79 47.77 323.81" style="fill:#263238;stroke:#263238;stroke-miterlimit:10"></polygon><rect x="50.81" y="343.66" width="25.25" height="156.02" style="fill:#fff;stroke:#263238;stroke-miterlimit:10"></rect><rect x="44.98" y="343.66" width="36.91" height="18.06" style="fill:#fff;stroke:#263238;stroke-miterlimit:10"></rect><polygon points="286.48 343.66 260.87 343.66 255.38 307.79 291.97 307.79 286.48 343.66" style="fill:#fff;stroke:#263238;stroke-miterlimit:10"></polygon><polygon points="257.83 323.81 289.52 323.81 291.97 307.79 255.38 307.79 257.83 323.81" style="fill:#263238;stroke:#263238;stroke-miterlimit:10"></polygon><rect x="260.87" y="343.66" width="25.25" height="156.02" style="fill:#fff;stroke:#263238;stroke-miterlimit:10"></rect><rect x="255.04" y="343.66" width="36.91" height="18.06" style="fill:#fff;stroke:#263238;stroke-miterlimit:10"></rect><polygon points="496.54 343.66 470.92 343.66 465.43 307.79 502.03 307.79 496.54 343.66" style="fill:#fff;stroke:#263238;stroke-miterlimit:10"></polygon><polygon points="467.88 323.81 499.57 323.81 502.03 307.79 465.43 307.79 467.88 323.81" style="fill:#263238;stroke:#263238;stroke-miterlimit:10"></polygon><rect x="470.92" y="343.66" width="25.25" height="156.02" style="fill:#fff;stroke:#263238;stroke-miterlimit:10"></rect><rect x="465.09" y="343.66" width="36.91" height="18.06" style="fill:#fff;stroke:#263238;stroke-miterlimit:10"></rect><polygon points="706.59 343.66 680.98 343.66 675.49 307.79 712.08 307.79 706.59 343.66" style="fill:#fff;stroke:#263238;stroke-miterlimit:10"></polygon><polygon points="677.94 323.81 709.63 323.81 712.08 307.79 675.49 307.79 677.94 323.81" style="fill:#263238;stroke:#263238;stroke-miterlimit:10"></polygon><rect x="680.98" y="343.66" width="25.25" height="156.02" style="fill:#fff;stroke:#263238;stroke-miterlimit:10"></rect><rect x="675.15" y="343.66" width="36.91" height="18.06" style="fill:#fff;stroke:#263238;stroke-miterlimit:10"></rect><rect x="0.94" y="290.96" width="748.62" height="16.83" style="fill:#fff;stroke:#263238;stroke-miterlimit:10"></rect><rect x="0.94" y="290.96" width="748.62" height="3.07" style="fill:#263238;stroke:#263238;stroke-miterlimit:10"></rect></g></svg>
